<svg xmlns="http://www.w3.org/2000/svg" xmlns:xlink="http://www.w3.org/1999/xlink" width="960" height="667.88"><rect width="960" height="667.88" rx="5" ry="5" class="a"/><svg y="0%" x="0%"><circle cx="20" cy="20" r="6" fill="#ff5f58"/><circle cx="40" cy="20" r="6" fill="#ffbd2e"/><circle cx="60" cy="20" r="6" fill="#18c132"/></svg><svg height="607.88" viewBox="0 0 92 60.788" width="920" x="15" xmlns="http://www.w3.org/2000/svg" xmlns:xlink="http://www.w3.org/1999/xlink" y="50"><style>@keyframes p{0%{transform:translateX(0)}4%{transform:translateX(-92px)}10.3%{transform:translateX(-184px)}19.7%{transform:translateX(-1288px)}31.6%{transform:translateX(-1380px)}39.7%{transform:translateX(-1472px)}39.8%{transform:translateX(-2576px)}51.7%{transform:translateX(-2760px)}59.8%{transform:translateX(-3036px)}71.7%{transform:translateX(-3128px)}79.9%{transform:translateX(-3956px)}91.8%{transform:translateX(-4048px)}to{transform:translateX(-4140px)}}.a{fill:#282d35}.f,.g,.i{white-space:pre}.f{fill:#d290e4;font-weight:700}.g,.i{fill:#b9c0cb}.i{fill:#a8cc8c}.j{fill:#e88388}.j,.k,.l,.m{white-space:pre}.k{fill:#b9c0cb;font-weight:700}.l,.m{fill:#6f7783}.m{fill:#dbab79}</style><g font-family="Monaco,Consolas,Menlo,'Bitstream Vera Sans Mono','Powerline Symbols',monospace" font-size="1.67"><defs><symbol id="1"><text y="1.67" class="f">▸</text><text x="2.004" y="1.67" class="f">lambda-lifeline</text><text x="18.036" y="1.67" class="f">·</text><text x="20.04" y="1.67" class="f">Lambda</text><text x="27.054" y="1.67" class="f">Node.js</text><text x="35.07" y="1.67" class="f">20</text><text x="38.076" y="1.67" class="f">→</text><text x="40.08" y="1.67" class="f">22</text><text x="43.086" y="1.67" class="f">migration</text><text x="53.106" y="1.67" class="f">·</text><text x="55.11" y="1.67" class="f">2</text><text x="57.114" y="1.67" class="f">days</text><text x="62.124" y="1.67" class="f">to</text><text x="65.13" y="1.67" class="f">EOL</text></symbol><symbol id="2"><text y="1.67" class="g">$</text><text x="2.004" y="1.67" class="g">lambda-lifeline</text><text x="18.036" y="1.67" class="g">scan</text><text x="23.046" y="1.67" class="g">--fixture</text><text x="33.066" y="1.67" class="g">test/fixtures/lambda-inventory.json</text></symbol><symbol id="3"><text y="1.67" class="f">▸</text><text x="2.004" y="1.67" class="f">Scanning</text><text x="11.022" y="1.67" class="f">fixture:</text><text x="20.04" y="1.67" class="f">test/fixtures/lambda-inventory.json</text></symbol><symbol id="4"><text y="1.67" style="white-space:pre" fill="#66c2cd">ℹ</text><text x="2.004" y="1.67" class="g">Scanned</text><text x="10.02" y="1.67" class="g">6</text><text x="12.024" y="1.67" class="g">functions</text><text x="22.044" y="1.67" class="g">·</text><text x="24.048" y="1.67" class="i">1</text><text x="26.052" y="1.67" class="i">healthy</text><text x="34.068" y="1.67" class="g">·</text><text x="36.072" y="1.67" class="j">5</text><text x="38.076" y="1.67" class="j">at</text><text x="41.082" y="1.67" class="j">risk</text></symbol><symbol id="5"><text y="1.67" class="k">Function</text><text x="37.074" y="1.67" class="k">Runtime</text><text x="52.104" y="1.67" class="k">Region</text><text x="67.134" y="1.67" class="k">Severity</text><text x="86.172" y="1.67" class="k">Days</text></symbol><symbol id="6"><text x="1.002" y="1.67" class="k">Target</text></symbol><symbol id="7"><text y="1.67" class="l">--------------------------------------------------------------------------------------------</text></symbol><symbol id="8"><text y="1.67" class="l">-------</text></symbol><symbol id="9"><text y="1.67" class="g">api-orders-ingest</text><text x="37.074" y="1.67" class="g">nodejs20.x</text><text x="52.104" y="1.67" class="g">us-east-1</text><text x="67.134" y="1.67" class="m">high</text><text x="86.172" y="1.67" class="g">154</text></symbol><symbol id="10"><text x="1.002" y="1.67" class="g">nodejs22.x</text></symbol><symbol id="11"><text y="1.67" class="g">billing-webhook-processor</text><text x="37.074" y="1.67" class="g">nodejs18.x</text><text x="52.104" y="1.67" class="g">us-east-1</text><text x="67.134" y="1.67" class="m">high</text><text x="86.172" y="1.67" class="g">154</text></symbol><symbol id="12"><text y="1.67" class="g">legacy-cron-cleanup</text><text x="37.074" y="1.67" class="g">nodejs16.x</text><text x="52.104" y="1.67" class="g">us-west-2</text><text x="67.134" y="1.67" class="m">high</text><text x="86.172" y="1.67" class="g">154</text></symbol><symbol id="13"><text y="1.67" class="g">report-generator</text><text x="37.074" y="1.67" class="g">python3.10</text><text x="52.104" y="1.67" class="g">us-east-1</text><text x="67.134" y="1.67" class="m">medium</text><text x="86.172" y="1.67" class="g">261</text></symbol><symbol id="14"><text x="1.002" y="1.67" class="g">python3.12</text></symbol><symbol id="15"><text y="1.67" class="g">ruby-legacy-processor</text><text x="37.074" y="1.67" class="g">ruby3.2</text><text x="52.104" y="1.67" class="g">us-east-1</text><text x="67.134" y="1.67" class="m">high</text><text x="86.172" y="1.67" class="g">154</text></symbol><symbol id="16"><text x="1.002" y="1.67" class="g">ruby3.4</text></symbol><symbol id="17"><text y="1.67" class="m">⚠</text><text x="2.004" y="1.67" class="g">Next:</text><text x="8.016" y="1.67" class="g">run</text><text x="12.024" y="1.67" class="g">`lambda-lifeline</text><text x="29.058" y="1.67" class="g">codemod</text><text x="37.074" y="1.67" class="g">--path</text><text x="44.088" y="1.67" class="g">&lt;your-repo&gt;`</text><text x="57.114" y="1.67" class="g">then</text><text x="62.124" y="1.67" class="g">`audit`,</text><text x="71.142" y="1.67" class="g">`iac`,</text><text x="78.156" y="1.67" class="g">and</text><text x="82.164" y="1.67" class="g">`deploy`.</text></symbol><symbol id="18"><text y="1.67" class="g">$</text><text x="2.004" y="1.67" class="g">lambda-lifeline</text><text x="18.036" y="1.67" class="g">codemod</text><text x="26.052" y="1.67" class="g">examples/sample-app/</text><text x="47.094" y="1.67" class="g">--apply</text></symbol><symbol id="19"><text y="1.67" class="g">▸</text><text x="2.004" y="1.67" class="g">Codemod:</text><text x="11.022" y="1.67" class="g">APPLY</text><text x="17.034" y="1.67" class="g">·</text><text x="19.038" y="1.67" class="g">.</text></symbol><symbol id="20"><text x="2.004" y="1.67" class="g">17</text><text x="5.01" y="1.67" class="g">source</text><text x="12.024" y="1.67" class="g">file(s)</text><text x="20.04" y="1.67" class="g">found</text></symbol><symbol id="21"><text y="1.67" class="g">ℹ</text><text x="2.004" y="1.67" class="g">[rewrite]</text><text x="12.024" y="1.67" class="g">examples/sample-app/src/handler.mjs</text><text x="48.096" y="1.67" class="g">·</text><text x="50.1" y="1.67" class="g">assert-to-with</text><text x="65.13" y="1.67" class="g">·</text><text x="67.134" y="1.67" class="g">2</text><text x="69.138" y="1.67" class="g">hit(s)</text></symbol><symbol id="22"><text y="1.67" class="g">ℹ</text><text x="2.004" y="1.67" class="g">[rewrite]</text><text x="12.024" y="1.67" class="g">examples/sample-app/src/handler.mjs</text><text x="48.096" y="1.67" class="g">·</text><text x="50.1" y="1.67" class="g">dynamic-import-assert</text><text x="72.144" y="1.67" class="g">·</text><text x="74.148" y="1.67" class="g">1</text><text x="76.152" y="1.67" class="g">hit(s)</text></symbol><symbol id="23"><text y="1.67" class="g">ℹ</text><text x="2.004" y="1.67" class="g">[lint]</text><text x="9.018" y="1.67" class="g">examples/sample-app/src/handler.mjs</text><text x="45.09" y="1.67" class="g">·</text><text x="47.094" y="1.67" class="g">buffer-negative-index</text><text x="69.138" y="1.67" class="g">·</text><text x="71.142" y="1.67" class="g">1</text><text x="73.146" y="1.67" class="g">hit(s)</text></symbol><symbol id="24"><text y="1.67" class="g">ℹ</text><text x="2.004" y="1.67" class="g">[rewrite]</text><text x="12.024" y="1.67" class="g">src/codemod/index.mjs</text><text x="34.068" y="1.67" class="g">·</text><text x="36.072" y="1.67" class="g">assert-to-with</text><text x="51.102" y="1.67" class="g">·</text><text x="53.106" y="1.67" class="g">4</text><text x="55.11" y="1.67" class="g">hit(s)</text></symbol><symbol id="25"><text y="1.67" class="g">ℹ</text><text x="2.004" y="1.67" class="g">[rewrite]</text><text x="12.024" y="1.67" class="g">src/codemod/index.mjs</text><text x="34.068" y="1.67" class="g">·</text><text x="36.072" y="1.67" class="g">dynamic-import-assert</text><text x="58.116" y="1.67" class="g">·</text><text x="60.12" y="1.67" class="g">1</text><text x="62.124" y="1.67" class="g">hit(s)</text></symbol><symbol id="26"><text y="1.67" class="g">ℹ</text><text x="2.004" y="1.67" class="g">[rewrite]</text><text x="12.024" y="1.67" class="g">test/codemod.test.mjs</text><text x="34.068" y="1.67" class="g">·</text><text x="36.072" y="1.67" class="g">assert-to-with</text><text x="51.102" y="1.67" class="g">·</text><text x="53.106" y="1.67" class="g">2</text><text x="55.11" y="1.67" class="g">hit(s)</text></symbol><symbol id="27"><text y="1.67" class="g">ℹ</text><text x="2.004" y="1.67" class="g">[rewrite]</text><text x="12.024" y="1.67" class="g">test/codemod.test.mjs</text><text x="34.068" y="1.67" class="g">·</text><text x="36.072" y="1.67" class="g">dynamic-import-assert</text><text x="58.116" y="1.67" class="g">·</text><text x="60.12" y="1.67" class="g">1</text><text x="62.124" y="1.67" class="g">hit(s)</text></symbol><symbol id="28"><text y="1.67" class="g">ℹ</text><text x="2.004" y="1.67" class="g">[lint]</text><text x="9.018" y="1.67" class="g">test/codemod.test.mjs</text><text x="31.062" y="1.67" class="g">·</text><text x="33.066" y="1.67" class="g">buffer-negative-index</text><text x="55.11" y="1.67" class="g">·</text><text x="57.114" y="1.67" class="g">1</text><text x="59.118" y="1.67" class="g">hit(s)</text></symbol><symbol id="29"><text y="1.67" class="g">✓</text><text x="2.004" y="1.67" class="g">3</text><text x="4.008" y="1.67" class="g">file(s)</text><text x="12.024" y="1.67" class="g">with</text><text x="17.034" y="1.67" class="g">13</text><text x="20.04" y="1.67" class="g">edit(s).</text><text x="29.058" y="1.67" class="g">Applied.</text></symbol><symbol id="30"><text y="1.67" class="g">⚠</text><text x="2.004" y="1.67" class="g">2</text><text x="4.008" y="1.67" class="g">lint</text><text x="9.018" y="1.67" class="g">finding(s)</text><text x="20.04" y="1.67" class="g">need</text><text x="25.05" y="1.67" class="g">human</text><text x="31.062" y="1.67" class="g">review</text><text x="38.076" y="1.67" class="g">(cannot</text><text x="46.092" y="1.67" class="g">auto-fix</text><text x="55.11" y="1.67" class="g">safely).</text></symbol><symbol id="31"><text y="1.67" class="g">$</text><text x="2.004" y="1.67" class="g">lambda-lifeline</text><text x="18.036" y="1.67" class="g">audit</text><text x="24.048" y="1.67" class="g">/tmp/demo-app/package.json</text></symbol><symbol id="32"><text y="1.67" class="g">▸</text><text x="2.004" y="1.67" class="g">Audit</text><text x="8.016" y="1.67" class="g">native</text><text x="15.03" y="1.67" class="g">dependencies</text><text x="28.056" y="1.67" class="g">·</text><text x="30.06" y="1.67" class="g">package.json</text></symbol><symbol id="33"><text y="1.67" class="g">✓</text><text x="2.004" y="1.67" class="g">No</text><text x="5.01" y="1.67" class="g">native-binary</text><text x="19.038" y="1.67" class="g">packages</text><text x="28.056" y="1.67" class="g">detected.</text><text x="38.076" y="1.67" class="g">You</text><text x="42.084" y="1.67" class="g">are</text><text x="46.092" y="1.67" class="g">Node</text><text x="51.102" y="1.67" class="g">22-safe</text><text x="59.118" y="1.67" class="g">on</text><text x="62.124" y="1.67" class="g">this</text><text x="67.134" y="1.67" class="g">dimension.</text></symbol><symbol id="34"><text y="1.67" class="g">$</text><text x="2.004" y="1.67" class="g">lambda-lifeline</text><text x="18.036" y="1.67" class="g">iac</text><text x="22.044" y="1.67" class="g">/tmp/demo-app</text><text x="36.072" y="1.67" class="g">--apply</text></symbol><symbol id="35"><text y="1.67" class="g">▸</text><text x="2.004" y="1.67" class="g">IaC</text><text x="6.012" y="1.67" class="g">patcher</text><text x="14.028" y="1.67" class="g">·</text><text x="16.032" y="1.67" class="g">.</text><text x="18.036" y="1.67" class="g">·</text><text x="20.04" y="1.67" class="g">nodejs16.x,nodejs18.x,nodejs20.x</text><text x="53.106" y="1.67" class="g">→</text><text x="55.11" y="1.67" class="g">nodejs22.x</text><text x="66.132" y="1.67" class="g">·</text><text x="68.136" y="1.67" class="g">APPLY</text></symbol><symbol id="36"><text x="2.004" y="1.67" class="g">scanning</text><text x="11.022" y="1.67" class="g">26</text><text x="14.028" y="1.67" class="g">candidate</text><text x="24.048" y="1.67" class="g">file(s)</text></symbol><symbol id="37"><text y="1.67" class="g">ℹ</text><text x="2.004" y="1.67" class="g">[CDK]</text><text x="8.016" y="1.67" class="g">examples/sample-app/cdk/stack.ts</text><text x="41.082" y="1.67" class="g">·</text><text x="43.086" y="1.67" class="g">2</text><text x="45.09" y="1.67" class="g">runtime</text><text x="53.106" y="1.67" class="g">ref(s):</text><text x="61.122" y="1.67" class="g">NODEJS_18_X,</text><text x="74.148" y="1.67" class="g">NODEJS_20_X</text></symbol><symbol id="38"><text y="1.67" class="g">ℹ</text><text x="2.004" y="1.67" class="g">[Terraform]</text><text x="14.028" y="1.67" class="g">examples/sample-app/infra/main.tf</text><text x="48.096" y="1.67" class="g">·</text><text x="50.1" y="1.67" class="g">2</text><text x="52.104" y="1.67" class="g">runtime</text><text x="60.12" y="1.67" class="g">ref(s):</text><text x="68.136" y="1.67" class="g">nodejs20.x,</text><text x="80.16" y="1.67" class="g">nodejs18.x</text></symbol><symbol id="39"><text y="1.67" class="g">ℹ</text><text x="2.004" y="1.67" class="g">[SAM/CFN]</text><text x="12.024" y="1.67" class="g">examples/sample-app/template.yaml</text><text x="46.092" y="1.67" class="g">·</text><text x="48.096" y="1.67" class="g">3</text><text x="50.1" y="1.67" class="g">runtime</text><text x="58.116" y="1.67" class="g">ref(s):</text><text x="66.132" y="1.67" class="g">nodejs20.x,</text><text x="78.156" y="1.67" class="g">nodejs18.x,</text><text x="90.18" y="1.67" class="g">no</text></symbol><symbol id="40"><text y="1.67" class="g">dejs16.x</text></symbol><symbol id="41"><text y="1.67" class="g">ℹ</text><text x="2.004" y="1.67" class="g">[CDK]</text><text x="8.016" y="1.67" class="g">src/iac/index.mjs</text><text x="26.052" y="1.67" class="g">·</text><text x="28.056" y="1.67" class="g">1</text><text x="30.06" y="1.67" class="g">runtime</text><text x="38.076" y="1.67" class="g">ref(s):</text><text x="46.092" y="1.67" class="g">NODEJS_20_X</text></symbol><symbol id="42"><text y="1.67" class="g">ℹ</text><text x="2.004" y="1.67" class="g">[CDK]</text><text x="8.016" y="1.67" class="g">test/iac.test.mjs</text><text x="26.052" y="1.67" class="g">·</text><text x="28.056" y="1.67" class="g">2</text><text x="30.06" y="1.67" class="g">runtime</text><text x="38.076" y="1.67" class="g">ref(s):</text><text x="46.092" y="1.67" class="g">NODEJS_18_X,</text><text x="59.118" y="1.67" class="g">NODEJS_20_X</text></symbol><symbol id="43"><text y="1.67" class="g">✓</text><text x="2.004" y="1.67" class="g">5</text><text x="4.008" y="1.67" class="g">file(s)</text><text x="12.024" y="1.67" class="g">·</text><text x="14.028" y="1.67" class="g">10</text><text x="17.034" y="1.67" class="g">runtime</text><text x="25.05" y="1.67" class="g">ref(s)</text><text x="32.064" y="1.67" class="g">updated.</text></symbol><symbol id="44"><text y="1.67" class="g">$</text><text x="2.004" y="1.67" class="g">lambda-lifeline</text><text x="18.036" y="1.67" class="g">plan</text></symbol><symbol id="a"><path fill="transparent" d="M0 0h92v29H0z"/></symbol><symbol id="b"><path fill="#6f7683" d="M0 0h1.102v2.171H0z"/></symbol></defs><path class="a" d="M0 0h92v60.788H0z"/><g style="animation-duration:12.639833000000001s;animation-iteration-count:infinite;animation-name:p;animation-timing-function:steps(1,end)"><svg width="4232"><svg><use xlink:href="#a"/><use xlink:href="#b" x="-.004"/></svg><svg x="92"><use xlink:href="#a"/><use xlink:href="#b" x="-.004" y="2.146"/><use xlink:href="#1"/></svg><svg x="184"><use xlink:href="#a"/><use xlink:href="#b" x="-.004" y="6.488"/><use xlink:href="#1"/><use xlink:href="#2" y="4.342"/></svg><svg x="276"><use xlink:href="#a"/><use xlink:href="#b" x="-.004" y="10.83"/><use xlink:href="#1"/><use xlink:href="#2" y="4.342"/><use xlink:href="#3" y="8.684"/></svg><svg x="368"><use xlink:href="#a"/><use xlink:href="#b" x="-.004" y="13.001"/><use xlink:href="#1"/><use xlink:href="#2" y="4.342"/><use xlink:href="#3" y="8.684"/><use xlink:href="#4" y="10.855"/></svg><svg x="460"><use xlink:href="#a"/><use xlink:href="#b" x="-.004" y="15.172"/><use xlink:href="#1"/><use xlink:href="#2" y="4.342"/><use xlink:href="#3" y="8.684"/><use xlink:href="#4" y="10.855"/></svg><svg x="552"><use xlink:href="#a"/><use xlink:href="#b" x="-.004" y="19.514"/><use xlink:href="#1"/><use xlink:href="#2" y="4.342"/><use xlink:href="#3" y="8.684"/><use xlink:href="#4" y="10.855"/><use xlink:href="#5" y="15.197"/><use xlink:href="#6" y="17.368"/></svg><svg x="644"><use xlink:href="#a"/><use xlink:href="#b" x="-.004" y="23.856"/><use xlink:href="#1"/><use xlink:href="#2" y="4.342"/><use xlink:href="#3" y="8.684"/><use xlink:href="#4" y="10.855"/><use xlink:href="#5" y="15.197"/><use xlink:href="#6" y="17.368"/><use xlink:href="#7" y="19.539"/><use xlink:href="#8" y="21.71"/></svg><svg x="736"><use xlink:href="#a"/><use xlink:href="#b" x="-.004" y="28.198"/><use xlink:href="#1"/><use xlink:href="#2" y="4.342"/><use xlink:href="#3" y="8.684"/><use xlink:href="#4" y="10.855"/><use xlink:href="#5" y="15.197"/><use xlink:href="#6" y="17.368"/><use xlink:href="#7" y="19.539"/><use xlink:href="#8" y="21.71"/><use xlink:href="#9" y="23.881"/><use xlink:href="#10" y="26.052"/></svg><svg x="828"><use xlink:href="#a"/><use xlink:href="#b" x="-.004" y="32.54"/><use xlink:href="#1"/><use xlink:href="#2" y="4.342"/><use xlink:href="#3" y="8.684"/><use xlink:href="#4" y="10.855"/><use xlink:href="#5" y="15.197"/><use xlink:href="#6" y="17.368"/><use xlink:href="#7" y="19.539"/><use xlink:href="#8" y="21.71"/><use xlink:href="#9" y="23.881"/><use xlink:href="#10" y="26.052"/><use xlink:href="#11" y="28.223"/><use xlink:href="#10" y="30.394"/></svg><svg x="920"><use xlink:href="#a"/><use xlink:href="#b" x="-.004" y="36.882"/><use xlink:href="#1"/><use xlink:href="#2" y="4.342"/><use xlink:href="#3" y="8.684"/><use xlink:href="#4" y="10.855"/><use xlink:href="#5" y="15.197"/><use xlink:href="#6" y="17.368"/><use xlink:href="#7" y="19.539"/><use xlink:href="#8" y="21.71"/><use xlink:href="#9" y="23.881"/><use xlink:href="#10" y="26.052"/><use xlink:href="#11" y="28.223"/><use xlink:href="#10" y="30.394"/><use xlink:href="#12" y="32.565"/><use xlink:href="#10" y="34.736"/></svg><svg x="1012"><use xlink:href="#a"/><use xlink:href="#b" x="-.004" y="41.224"/><use xlink:href="#1"/><use xlink:href="#2" y="4.342"/><use xlink:href="#3" y="8.684"/><use xlink:href="#4" y="10.855"/><use xlink:href="#5" y="15.197"/><use xlink:href="#6" y="17.368"/><use xlink:href="#7" y="19.539"/><use xlink:href="#8" y="21.71"/><use xlink:href="#9" y="23.881"/><use xlink:href="#10" y="26.052"/><use xlink:href="#11" y="28.223"/><use xlink:href="#10" y="30.394"/><use xlink:href="#12" y="32.565"/><use xlink:href="#10" y="34.736"/><use xlink:href="#13" y="36.907"/><use xlink:href="#14" y="39.078"/></svg><svg x="1104"><use xlink:href="#a"/><use xlink:href="#b" x="-.004" y="45.566"/><use xlink:href="#1"/><use xlink:href="#2" y="4.342"/><use xlink:href="#3" y="8.684"/><use xlink:href="#4" y="10.855"/><use xlink:href="#5" y="15.197"/><use xlink:href="#6" y="17.368"/><use xlink:href="#7" y="19.539"/><use xlink:href="#8" y="21.71"/><use xlink:href="#9" y="23.881"/><use xlink:href="#10" y="26.052"/><use xlink:href="#11" y="28.223"/><use xlink:href="#10" y="30.394"/><use xlink:href="#12" y="32.565"/><use xlink:href="#10" y="34.736"/><use xlink:href="#13" y="36.907"/><use xlink:href="#14" y="39.078"/><use xlink:href="#15" y="41.249"/><use xlink:href="#16" y="43.42"/></svg><svg x="1196"><use xlink:href="#a"/><use xlink:href="#b" x="-.004" y="47.737"/><use xlink:href="#1"/><use xlink:href="#2" y="4.342"/><use xlink:href="#3" y="8.684"/><use xlink:href="#4" y="10.855"/><use xlink:href="#5" y="15.197"/><use xlink:href="#6" y="17.368"/><use xlink:href="#7" y="19.539"/><use xlink:href="#8" y="21.71"/><use xlink:href="#9" y="23.881"/><use xlink:href="#10" y="26.052"/><use xlink:href="#11" y="28.223"/><use xlink:href="#10" y="30.394"/><use xlink:href="#12" y="32.565"/><use xlink:href="#10" y="34.736"/><use xlink:href="#13" y="36.907"/><use xlink:href="#14" y="39.078"/><use xlink:href="#15" y="41.249"/><use xlink:href="#16" y="43.42"/></svg><svg x="1288"><use xlink:href="#a"/><use xlink:href="#b" x="-.004" y="49.908"/><use xlink:href="#1"/><use xlink:href="#2" y="4.342"/><use xlink:href="#3" y="8.684"/><use xlink:href="#4" y="10.855"/><use xlink:href="#5" y="15.197"/><use xlink:href="#6" y="17.368"/><use xlink:href="#7" y="19.539"/><use xlink:href="#8" y="21.71"/><use xlink:href="#9" y="23.881"/><use xlink:href="#10" y="26.052"/><use xlink:href="#11" y="28.223"/><use xlink:href="#10" y="30.394"/><use xlink:href="#12" y="32.565"/><use xlink:href="#10" y="34.736"/><use xlink:href="#13" y="36.907"/><use xlink:href="#14" y="39.078"/><use xlink:href="#15" y="41.249"/><use xlink:href="#16" y="43.42"/><use xlink:href="#17" y="47.762"/></svg><svg x="1380"><use xlink:href="#a"/><use xlink:href="#b" x="-.004" y="54.25"/><use xlink:href="#1"/><use xlink:href="#2" y="4.342"/><use xlink:href="#3" y="8.684"/><use xlink:href="#4" y="10.855"/><use xlink:href="#5" y="15.197"/><use xlink:href="#6" y="17.368"/><use xlink:href="#7" y="19.539"/><use xlink:href="#8" y="21.71"/><use xlink:href="#9" y="23.881"/><use xlink:href="#10" y="26.052"/><use xlink:href="#11" y="28.223"/><use xlink:href="#10" y="30.394"/><use xlink:href="#12" y="32.565"/><use xlink:href="#10" y="34.736"/><use xlink:href="#13" y="36.907"/><use xlink:href="#14" y="39.078"/><use xlink:href="#15" y="41.249"/><use xlink:href="#16" y="43.42"/><use xlink:href="#17" y="47.762"/><use xlink:href="#18" y="52.104"/></svg><svg x="1472"><use xlink:href="#a"/><use xlink:href="#b" x="-.004" y="58.592"/><use xlink:href="#1"/><use xlink:href="#2" y="4.342"/><use xlink:href="#3" y="8.684"/><use xlink:href="#4" y="10.855"/><use xlink:href="#5" y="15.197"/><use xlink:href="#6" y="17.368"/><use xlink:href="#7" y="19.539"/><use xlink:href="#8" y="21.71"/><use xlink:href="#9" y="23.881"/><use xlink:href="#10" y="26.052"/><use xlink:href="#11" y="28.223"/><use xlink:href="#10" y="30.394"/><use xlink:href="#12" y="32.565"/><use xlink:href="#10" y="34.736"/><use xlink:href="#13" y="36.907"/><use xlink:href="#14" y="39.078"/><use xlink:href="#15" y="41.249"/><use xlink:href="#16" y="43.42"/><use xlink:href="#17" y="47.762"/><use xlink:href="#18" y="52.104"/><use xlink:href="#19" y="56.446"/></svg><svg x="1564"><use xlink:href="#a"/><use xlink:href="#b" x="-.004" y="60.763"/><use xlink:href="#1"/><use xlink:href="#2" y="4.342"/><use xlink:href="#3" y="8.684"/><use xlink:href="#4" y="10.855"/><use xlink:href="#5" y="15.197"/><use xlink:href="#6" y="17.368"/><use xlink:href="#7" y="19.539"/><use xlink:href="#8" y="21.71"/><use xlink:href="#9" y="23.881"/><use xlink:href="#10" y="26.052"/><use xlink:href="#11" y="28.223"/><use xlink:href="#10" y="30.394"/><use xlink:href="#12" y="32.565"/><use xlink:href="#10" y="34.736"/><use xlink:href="#13" y="36.907"/><use xlink:href="#14" y="39.078"/><use xlink:href="#15" y="41.249"/><use xlink:href="#16" y="43.42"/><use xlink:href="#17" y="47.762"/><use xlink:href="#18" y="52.104"/><use xlink:href="#19" y="56.446"/><use xlink:href="#20" y="58.617"/></svg><svg x="1656"><use xlink:href="#a"/><use xlink:href="#b" x="-.004" y="60.763"/><use xlink:href="#2" y="2.171"/><use xlink:href="#3" y="6.513"/><use xlink:href="#4" y="8.684"/><use xlink:href="#5" y="13.026"/><use xlink:href="#6" y="15.197"/><use xlink:href="#7" y="17.368"/><use xlink:href="#8" y="19.539"/><use xlink:href="#9" y="21.71"/><use xlink:href="#10" y="23.881"/><use xlink:href="#11" y="26.052"/><use xlink:href="#10" y="28.223"/><use xlink:href="#12" y="30.394"/><use xlink:href="#10" y="32.565"/><use xlink:href="#13" y="34.736"/><use xlink:href="#14" y="36.907"/><use xlink:href="#15" y="39.078"/><use xlink:href="#16" y="41.249"/><use xlink:href="#17" y="45.591"/><use xlink:href="#18" y="49.933"/><use xlink:href="#19" y="54.275"/><use xlink:href="#20" y="56.446"/><use xlink:href="#21" y="58.617"/></svg><svg x="1748"><use xlink:href="#a"/><use xlink:href="#b" x="-.004" y="60.763"/><use xlink:href="#2"/><use xlink:href="#3" y="4.342"/><use xlink:href="#4" y="6.513"/><use xlink:href="#5" y="10.855"/><use xlink:href="#6" y="13.026"/><use xlink:href="#7" y="15.197"/><use xlink:href="#8" y="17.368"/><use xlink:href="#9" y="19.539"/><use xlink:href="#10" y="21.71"/><use xlink:href="#11" y="23.881"/><use xlink:href="#10" y="26.052"/><use xlink:href="#12" y="28.223"/><use xlink:href="#10" y="30.394"/><use xlink:href="#13" y="32.565"/><use xlink:href="#14" y="34.736"/><use xlink:href="#15" y="36.907"/><use xlink:href="#16" y="39.078"/><use xlink:href="#17" y="43.42"/><use xlink:href="#18" y="47.762"/><use xlink:href="#19" y="52.104"/><use xlink:href="#20" y="54.275"/><use xlink:href="#21" y="56.446"/><use xlink:href="#22" y="58.617"/></svg><svg x="1840"><use xlink:href="#a"/><use xlink:href="#b" x="-.004" y="60.763"/><use xlink:href="#3" y="2.171"/><use xlink:href="#4" y="4.342"/><use xlink:href="#5" y="8.684"/><use xlink:href="#6" y="10.855"/><use xlink:href="#7" y="13.026"/><use xlink:href="#8" y="15.197"/><use xlink:href="#9" y="17.368"/><use xlink:href="#10" y="19.539"/><use xlink:href="#11" y="21.71"/><use xlink:href="#10" y="23.881"/><use xlink:href="#12" y="26.052"/><use xlink:href="#10" y="28.223"/><use xlink:href="#13" y="30.394"/><use xlink:href="#14" y="32.565"/><use xlink:href="#15" y="34.736"/><use xlink:href="#16" y="36.907"/><use xlink:href="#17" y="41.249"/><use xlink:href="#18" y="45.591"/><use xlink:href="#19" y="49.933"/><use xlink:href="#20" y="52.104"/><use xlink:href="#21" y="54.275"/><use xlink:href="#22" y="56.446"/><use xlink:href="#23" y="58.617"/></svg><svg x="1932"><use xlink:href="#a"/><use xlink:href="#b" x="-.004" y="60.763"/><use xlink:href="#3"/><use xlink:href="#4" y="2.171"/><use xlink:href="#5" y="6.513"/><use xlink:href="#6" y="8.684"/><use xlink:href="#7" y="10.855"/><use xlink:href="#8" y="13.026"/><use xlink:href="#9" y="15.197"/><use xlink:href="#10" y="17.368"/><use xlink:href="#11" y="19.539"/><use xlink:href="#10" y="21.71"/><use xlink:href="#12" y="23.881"/><use xlink:href="#10" y="26.052"/><use xlink:href="#13" y="28.223"/><use xlink:href="#14" y="30.394"/><use xlink:href="#15" y="32.565"/><use xlink:href="#16" y="34.736"/><use xlink:href="#17" y="39.078"/><use xlink:href="#18" y="43.42"/><use xlink:href="#19" y="47.762"/><use xlink:href="#20" y="49.933"/><use xlink:href="#21" y="52.104"/><use xlink:href="#22" y="54.275"/><use xlink:href="#23" y="56.446"/><use xlink:href="#24" y="58.617"/></svg><svg x="2024"><use xlink:href="#a"/><use xlink:href="#b" x="-.004" y="60.763"/><use xlink:href="#4"/><use xlink:href="#5" y="4.342"/><use xlink:href="#6" y="6.513"/><use xlink:href="#7" y="8.684"/><use xlink:href="#8" y="10.855"/><use xlink:href="#9" y="13.026"/><use xlink:href="#10" y="15.197"/><use xlink:href="#11" y="17.368"/><use xlink:href="#10" y="19.539"/><use xlink:href="#12" y="21.71"/><use xlink:href="#10" y="23.881"/><use xlink:href="#13" y="26.052"/><use xlink:href="#14" y="28.223"/><use xlink:href="#15" y="30.394"/><use xlink:href="#16" y="32.565"/><use xlink:href="#17" y="36.907"/><use xlink:href="#18" y="41.249"/><use xlink:href="#19" y="45.591"/><use xlink:href="#20" y="47.762"/><use xlink:href="#21" y="49.933"/><use xlink:href="#22" y="52.104"/><use xlink:href="#23" y="54.275"/><use xlink:href="#24" y="56.446"/><use xlink:href="#25" y="58.617"/></svg><svg x="2116"><use xlink:href="#a"/><use xlink:href="#b" x="-.004" y="60.763"/><use xlink:href="#5" y="2.171"/><use xlink:href="#6" y="4.342"/><use xlink:href="#7" y="6.513"/><use xlink:href="#8" y="8.684"/><use xlink:href="#9" y="10.855"/><use xlink:href="#10" y="13.026"/><use xlink:href="#11" y="15.197"/><use xlink:href="#10" y="17.368"/><use xlink:href="#12" y="19.539"/><use xlink:href="#10" y="21.71"/><use xlink:href="#13" y="23.881"/><use xlink:href="#14" y="26.052"/><use xlink:href="#15" y="28.223"/><use xlink:href="#16" y="30.394"/><use xlink:href="#17" y="34.736"/><use xlink:href="#18" y="39.078"/><use xlink:href="#19" y="43.42"/><use xlink:href="#20" y="45.591"/><use xlink:href="#21" y="47.762"/><use xlink:href="#22" y="49.933"/><use xlink:href="#23" y="52.104"/><use xlink:href="#24" y="54.275"/><use xlink:href="#25" y="56.446"/><use xlink:href="#26" y="58.617"/></svg><svg x="2208"><use xlink:href="#a"/><use xlink:href="#b" x="-.004" y="60.763"/><use xlink:href="#5"/><use xlink:href="#6" y="2.171"/><use xlink:href="#7" y="4.342"/><use xlink:href="#8" y="6.513"/><use xlink:href="#9" y="8.684"/><use xlink:href="#10" y="10.855"/><use xlink:href="#11" y="13.026"/><use xlink:href="#10" y="15.197"/><use xlink:href="#12" y="17.368"/><use xlink:href="#10" y="19.539"/><use xlink:href="#13" y="21.71"/><use xlink:href="#14" y="23.881"/><use xlink:href="#15" y="26.052"/><use xlink:href="#16" y="28.223"/><use xlink:href="#17" y="32.565"/><use xlink:href="#18" y="36.907"/><use xlink:href="#19" y="41.249"/><use xlink:href="#20" y="43.42"/><use xlink:href="#21" y="45.591"/><use xlink:href="#22" y="47.762"/><use xlink:href="#23" y="49.933"/><use xlink:href="#24" y="52.104"/><use xlink:href="#25" y="54.275"/><use xlink:href="#26" y="56.446"/><use xlink:href="#27" y="58.617"/></svg><svg x="2300"><use xlink:href="#a"/><use xlink:href="#b" x="-.004" y="60.763"/><use xlink:href="#6"/><use xlink:href="#7" y="2.171"/><use xlink:href="#8" y="4.342"/><use xlink:href="#9" y="6.513"/><use xlink:href="#10" y="8.684"/><use xlink:href="#11" y="10.855"/><use xlink:href="#10" y="13.026"/><use xlink:href="#12" y="15.197"/><use xlink:href="#10" y="17.368"/><use xlink:href="#13" y="19.539"/><use xlink:href="#14" y="21.71"/><use xlink:href="#15" y="23.881"/><use xlink:href="#16" y="26.052"/><use xlink:href="#17" y="30.394"/><use xlink:href="#18" y="34.736"/><use xlink:href="#19" y="39.078"/><use xlink:href="#20" y="41.249"/><use xlink:href="#21" y="43.42"/><use xlink:href="#22" y="45.591"/><use xlink:href="#23" y="47.762"/><use xlink:href="#24" y="49.933"/><use xlink:href="#25" y="52.104"/><use xlink:href="#26" y="54.275"/><use xlink:href="#27" y="56.446"/><use xlink:href="#28" y="58.617"/></svg><svg x="2392"><use xlink:href="#a"/><use xlink:href="#b" x="-.004" y="60.763"/><use xlink:href="#7"/><use xlink:href="#8" y="2.171"/><use xlink:href="#9" y="4.342"/><use xlink:href="#10" y="6.513"/><use xlink:href="#11" y="8.684"/><use xlink:href="#10" y="10.855"/><use xlink:href="#12" y="13.026"/><use xlink:href="#10" y="15.197"/><use xlink:href="#13" y="17.368"/><use xlink:href="#14" y="19.539"/><use xlink:href="#15" y="21.71"/><use xlink:href="#16" y="23.881"/><use xlink:href="#17" y="28.223"/><use xlink:href="#18" y="32.565"/><use xlink:href="#19" y="36.907"/><use xlink:href="#20" y="39.078"/><use xlink:href="#21" y="41.249"/><use xlink:href="#22" y="43.42"/><use xlink:href="#23" y="45.591"/><use xlink:href="#24" y="47.762"/><use xlink:href="#25" y="49.933"/><use xlink:href="#26" y="52.104"/><use xlink:href="#27" y="54.275"/><use xlink:href="#28" y="56.446"/></svg><svg x="2484"><use xlink:href="#a"/><use xlink:href="#b" x="-.004" y="60.763"/><use xlink:href="#8"/><use xlink:href="#9" y="2.171"/><use xlink:href="#10" y="4.342"/><use xlink:href="#11" y="6.513"/><use xlink:href="#10" y="8.684"/><use xlink:href="#12" y="10.855"/><use xlink:href="#10" y="13.026"/><use xlink:href="#13" y="15.197"/><use xlink:href="#14" y="17.368"/><use xlink:href="#15" y="19.539"/><use xlink:href="#16" y="21.71"/><use xlink:href="#17" y="26.052"/><use xlink:href="#18" y="30.394"/><use xlink:href="#19" y="34.736"/><use xlink:href="#20" y="36.907"/><use xlink:href="#21" y="39.078"/><use xlink:href="#22" y="41.249"/><use xlink:href="#23" y="43.42"/><use xlink:href="#24" y="45.591"/><use xlink:href="#25" y="47.762"/><use xlink:href="#26" y="49.933"/><use xlink:href="#27" y="52.104"/><use xlink:href="#28" y="54.275"/><use xlink:href="#29" y="58.617"/></svg><svg x="2576"><use xlink:href="#a"/><use xlink:href="#b" x="-.004" y="60.763"/><use xlink:href="#9"/><use xlink:href="#10" y="2.171"/><use xlink:href="#11" y="4.342"/><use xlink:href="#10" y="6.513"/><use xlink:href="#12" y="8.684"/><use xlink:href="#10" y="10.855"/><use xlink:href="#13" y="13.026"/><use xlink:href="#14" y="15.197"/><use xlink:href="#15" y="17.368"/><use xlink:href="#16" y="19.539"/><use xlink:href="#17" y="23.881"/><use xlink:href="#18" y="28.223"/><use xlink:href="#19" y="32.565"/><use xlink:href="#20" y="34.736"/><use xlink:href="#21" y="36.907"/><use xlink:href="#22" y="39.078"/><use xlink:href="#23" y="41.249"/><use xlink:href="#24" y="43.42"/><use xlink:href="#25" y="45.591"/><use xlink:href="#26" y="47.762"/><use xlink:href="#27" y="49.933"/><use xlink:href="#28" y="52.104"/><use xlink:href="#29" y="56.446"/><use xlink:href="#30" y="58.617"/></svg><svg x="2668"><use xlink:href="#a"/><use xlink:href="#b" x="-.004" y="60.763"/><use xlink:href="#10"/><use xlink:href="#11" y="2.171"/><use xlink:href="#10" y="4.342"/><use xlink:href="#12" y="6.513"/><use xlink:href="#10" y="8.684"/><use xlink:href="#13" y="10.855"/><use xlink:href="#14" y="13.026"/><use xlink:href="#15" y="15.197"/><use xlink:href="#16" y="17.368"/><use xlink:href="#17" y="21.71"/><use xlink:href="#18" y="26.052"/><use xlink:href="#19" y="30.394"/><use xlink:href="#20" y="32.565"/><use xlink:href="#21" y="34.736"/><use xlink:href="#22" y="36.907"/><use xlink:href="#23" y="39.078"/><use xlink:href="#24" y="41.249"/><use xlink:href="#25" y="43.42"/><use xlink:href="#26" y="45.591"/><use xlink:href="#27" y="47.762"/><use xlink:href="#28" y="49.933"/><use xlink:href="#29" y="54.275"/><use xlink:href="#30" y="56.446"/></svg><svg x="2760"><use xlink:href="#a"/><use xlink:href="#b" x="-.004" y="60.763"/><use xlink:href="#11"/><use xlink:href="#10" y="2.171"/><use xlink:href="#12" y="4.342"/><use xlink:href="#10" y="6.513"/><use xlink:href="#13" y="8.684"/><use xlink:href="#14" y="10.855"/><use xlink:href="#15" y="13.026"/><use xlink:href="#16" y="15.197"/><use xlink:href="#17" y="19.539"/><use xlink:href="#18" y="23.881"/><use xlink:href="#19" y="28.223"/><use xlink:href="#20" y="30.394"/><use xlink:href="#21" y="32.565"/><use xlink:href="#22" y="34.736"/><use xlink:href="#23" y="36.907"/><use xlink:href="#24" y="39.078"/><use xlink:href="#25" y="41.249"/><use xlink:href="#26" y="43.42"/><use xlink:href="#27" y="45.591"/><use xlink:href="#28" y="47.762"/><use xlink:href="#29" y="52.104"/><use xlink:href="#30" y="54.275"/><use xlink:href="#31" y="58.617"/></svg><svg x="2852"><use xlink:href="#a"/><use xlink:href="#b" x="-.004" y="60.763"/><use xlink:href="#10"/><use xlink:href="#12" y="2.171"/><use xlink:href="#10" y="4.342"/><use xlink:href="#13" y="6.513"/><use xlink:href="#14" y="8.684"/><use xlink:href="#15" y="10.855"/><use xlink:href="#16" y="13.026"/><use xlink:href="#17" y="17.368"/><use xlink:href="#18" y="21.71"/><use xlink:href="#19" y="26.052"/><use xlink:href="#20" y="28.223"/><use xlink:href="#21" y="30.394"/><use xlink:href="#22" y="32.565"/><use xlink:href="#23" y="34.736"/><use xlink:href="#24" y="36.907"/><use xlink:href="#25" y="39.078"/><use xlink:href="#26" y="41.249"/><use xlink:href="#27" y="43.42"/><use xlink:href="#28" y="45.591"/><use xlink:href="#29" y="49.933"/><use xlink:href="#30" y="52.104"/><use xlink:href="#31" y="56.446"/></svg><svg x="2944"><use xlink:href="#a"/><use xlink:href="#b" x="-.004" y="60.763"/><use xlink:href="#12"/><use xlink:href="#10" y="2.171"/><use xlink:href="#13" y="4.342"/><use xlink:href="#14" y="6.513"/><use xlink:href="#15" y="8.684"/><use xlink:href="#16" y="10.855"/><use xlink:href="#17" y="15.197"/><use xlink:href="#18" y="19.539"/><use xlink:href="#19" y="23.881"/><use xlink:href="#20" y="26.052"/><use xlink:href="#21" y="28.223"/><use xlink:href="#22" y="30.394"/><use xlink:href="#23" y="32.565"/><use xlink:href="#24" y="34.736"/><use xlink:href="#25" y="36.907"/><use xlink:href="#26" y="39.078"/><use xlink:href="#27" y="41.249"/><use xlink:href="#28" y="43.42"/><use xlink:href="#29" y="47.762"/><use xlink:href="#30" y="49.933"/><use xlink:href="#31" y="54.275"/><use xlink:href="#32" y="58.617"/></svg><svg x="3036"><use xlink:href="#a"/><use xlink:href="#b" x="-.004" y="60.763"/><use xlink:href="#10"/><use xlink:href="#13" y="2.171"/><use xlink:href="#14" y="4.342"/><use xlink:href="#15" y="6.513"/><use xlink:href="#16" y="8.684"/><use xlink:href="#17" y="13.026"/><use xlink:href="#18" y="17.368"/><use xlink:href="#19" y="21.71"/><use xlink:href="#20" y="23.881"/><use xlink:href="#21" y="26.052"/><use xlink:href="#22" y="28.223"/><use xlink:href="#23" y="30.394"/><use xlink:href="#24" y="32.565"/><use xlink:href="#25" y="34.736"/><use xlink:href="#26" y="36.907"/><use xlink:href="#27" y="39.078"/><use xlink:href="#28" y="41.249"/><use xlink:href="#29" y="45.591"/><use xlink:href="#30" y="47.762"/><use xlink:href="#31" y="52.104"/><use xlink:href="#32" y="56.446"/><use xlink:href="#33" y="58.617"/></svg><svg x="3128"><use xlink:href="#a"/><use xlink:href="#b" x="-.004" y="60.763"/><use xlink:href="#14"/><use xlink:href="#15" y="2.171"/><use xlink:href="#16" y="4.342"/><use xlink:href="#17" y="8.684"/><use xlink:href="#18" y="13.026"/><use xlink:href="#19" y="17.368"/><use xlink:href="#20" y="19.539"/><use xlink:href="#21" y="21.71"/><use xlink:href="#22" y="23.881"/><use xlink:href="#23" y="26.052"/><use xlink:href="#24" y="28.223"/><use xlink:href="#25" y="30.394"/><use xlink:href="#26" y="32.565"/><use xlink:href="#27" y="34.736"/><use xlink:href="#28" y="36.907"/><use xlink:href="#29" y="41.249"/><use xlink:href="#30" y="43.42"/><use xlink:href="#31" y="47.762"/><use xlink:href="#32" y="52.104"/><use xlink:href="#33" y="54.275"/><use xlink:href="#34" y="58.617"/></svg><svg x="3220"><use xlink:href="#a"/><use xlink:href="#b" x="-.004" y="60.763"/><use xlink:href="#16"/><use xlink:href="#17" y="4.342"/><use xlink:href="#18" y="8.684"/><use xlink:href="#19" y="13.026"/><use xlink:href="#20" y="15.197"/><use xlink:href="#21" y="17.368"/><use xlink:href="#22" y="19.539"/><use xlink:href="#23" y="21.71"/><use xlink:href="#24" y="23.881"/><use xlink:href="#25" y="26.052"/><use xlink:href="#26" y="28.223"/><use xlink:href="#27" y="30.394"/><use xlink:href="#28" y="32.565"/><use xlink:href="#29" y="36.907"/><use xlink:href="#30" y="39.078"/><use xlink:href="#31" y="43.42"/><use xlink:href="#32" y="47.762"/><use xlink:href="#33" y="49.933"/><use xlink:href="#34" y="54.275"/><use xlink:href="#35" y="58.617"/></svg><svg x="3312"><use xlink:href="#a"/><use xlink:href="#b" x="-.004" y="60.763"/><use xlink:href="#17" y="2.171"/><use xlink:href="#18" y="6.513"/><use xlink:href="#19" y="10.855"/><use xlink:href="#20" y="13.026"/><use xlink:href="#21" y="15.197"/><use xlink:href="#22" y="17.368"/><use xlink:href="#23" y="19.539"/><use xlink:href="#24" y="21.71"/><use xlink:href="#25" y="23.881"/><use xlink:href="#26" y="26.052"/><use xlink:href="#27" y="28.223"/><use xlink:href="#28" y="30.394"/><use xlink:href="#29" y="34.736"/><use xlink:href="#30" y="36.907"/><use xlink:href="#31" y="41.249"/><use xlink:href="#32" y="45.591"/><use xlink:href="#33" y="47.762"/><use xlink:href="#34" y="52.104"/><use xlink:href="#35" y="56.446"/><use xlink:href="#36" y="58.617"/></svg><svg x="3404"><use xlink:href="#a"/><use xlink:href="#b" x="-.004" y="60.763"/><use xlink:href="#17"/><use xlink:href="#18" y="4.342"/><use xlink:href="#19" y="8.684"/><use xlink:href="#20" y="10.855"/><use xlink:href="#21" y="13.026"/><use xlink:href="#22" y="15.197"/><use xlink:href="#23" y="17.368"/><use xlink:href="#24" y="19.539"/><use xlink:href="#25" y="21.71"/><use xlink:href="#26" y="23.881"/><use xlink:href="#27" y="26.052"/><use xlink:href="#28" y="28.223"/><use xlink:href="#29" y="32.565"/><use xlink:href="#30" y="34.736"/><use xlink:href="#31" y="39.078"/><use xlink:href="#32" y="43.42"/><use xlink:href="#33" y="45.591"/><use xlink:href="#34" y="49.933"/><use xlink:href="#35" y="54.275"/><use xlink:href="#36" y="56.446"/><use xlink:href="#37" y="58.617"/></svg><svg x="3496"><use xlink:href="#a"/><use xlink:href="#b" x="-.004" y="60.763"/><use xlink:href="#18" y="2.171"/><use xlink:href="#19" y="6.513"/><use xlink:href="#20" y="8.684"/><use xlink:href="#21" y="10.855"/><use xlink:href="#22" y="13.026"/><use xlink:href="#23" y="15.197"/><use xlink:href="#24" y="17.368"/><use xlink:href="#25" y="19.539"/><use xlink:href="#26" y="21.71"/><use xlink:href="#27" y="23.881"/><use xlink:href="#28" y="26.052"/><use xlink:href="#29" y="30.394"/><use xlink:href="#30" y="32.565"/><use xlink:href="#31" y="36.907"/><use xlink:href="#32" y="41.249"/><use xlink:href="#33" y="43.42"/><use xlink:href="#34" y="47.762"/><use xlink:href="#35" y="52.104"/><use xlink:href="#36" y="54.275"/><use xlink:href="#37" y="56.446"/><use xlink:href="#38" y="58.617"/></svg><svg x="3588"><use xlink:href="#a"/><use xlink:href="#b" x="-.004" y="60.763"/><use xlink:href="#19" y="2.171"/><use xlink:href="#20" y="4.342"/><use xlink:href="#21" y="6.513"/><use xlink:href="#22" y="8.684"/><use xlink:href="#23" y="10.855"/><use xlink:href="#24" y="13.026"/><use xlink:href="#25" y="15.197"/><use xlink:href="#26" y="17.368"/><use xlink:href="#27" y="19.539"/><use xlink:href="#28" y="21.71"/><use xlink:href="#29" y="26.052"/><use xlink:href="#30" y="28.223"/><use xlink:href="#31" y="32.565"/><use xlink:href="#32" y="36.907"/><use xlink:href="#33" y="39.078"/><use xlink:href="#34" y="43.42"/><use xlink:href="#35" y="47.762"/><use xlink:href="#36" y="49.933"/><use xlink:href="#37" y="52.104"/><use xlink:href="#38" y="54.275"/><use xlink:href="#39" y="56.446"/><use xlink:href="#40" y="58.617"/></svg><svg x="3680"><use xlink:href="#a"/><use xlink:href="#b" x="-.004" y="60.763"/><use xlink:href="#19"/><use xlink:href="#20" y="2.171"/><use xlink:href="#21" y="4.342"/><use xlink:href="#22" y="6.513"/><use xlink:href="#23" y="8.684"/><use xlink:href="#24" y="10.855"/><use xlink:href="#25" y="13.026"/><use xlink:href="#26" y="15.197"/><use xlink:href="#27" y="17.368"/><use xlink:href="#28" y="19.539"/><use xlink:href="#29" y="23.881"/><use xlink:href="#30" y="26.052"/><use xlink:href="#31" y="30.394"/><use xlink:href="#32" y="34.736"/><use xlink:href="#33" y="36.907"/><use xlink:href="#34" y="41.249"/><use xlink:href="#35" y="45.591"/><use xlink:href="#36" y="47.762"/><use xlink:href="#37" y="49.933"/><use xlink:href="#38" y="52.104"/><use xlink:href="#39" y="54.275"/><use xlink:href="#40" y="56.446"/><use xlink:href="#41" y="58.617"/></svg><svg x="3772"><use xlink:href="#a"/><use xlink:href="#b" x="-.004" y="60.763"/><use xlink:href="#20"/><use xlink:href="#21" y="2.171"/><use xlink:href="#22" y="4.342"/><use xlink:href="#23" y="6.513"/><use xlink:href="#24" y="8.684"/><use xlink:href="#25" y="10.855"/><use xlink:href="#26" y="13.026"/><use xlink:href="#27" y="15.197"/><use xlink:href="#28" y="17.368"/><use xlink:href="#29" y="21.71"/><use xlink:href="#30" y="23.881"/><use xlink:href="#31" y="28.223"/><use xlink:href="#32" y="32.565"/><use xlink:href="#33" y="34.736"/><use xlink:href="#34" y="39.078"/><use xlink:href="#35" y="43.42"/><use xlink:href="#36" y="45.591"/><use xlink:href="#37" y="47.762"/><use xlink:href="#38" y="49.933"/><use xlink:href="#39" y="52.104"/><use xlink:href="#40" y="54.275"/><use xlink:href="#41" y="56.446"/><use xlink:href="#42" y="58.617"/></svg><svg x="3864"><use xlink:href="#a"/><use xlink:href="#b" x="-.004" y="60.763"/><use xlink:href="#21"/><use xlink:href="#22" y="2.171"/><use xlink:href="#23" y="4.342"/><use xlink:href="#24" y="6.513"/><use xlink:href="#25" y="8.684"/><use xlink:href="#26" y="10.855"/><use xlink:href="#27" y="13.026"/><use xlink:href="#28" y="15.197"/><use xlink:href="#29" y="19.539"/><use xlink:href="#30" y="21.71"/><use xlink:href="#31" y="26.052"/><use xlink:href="#32" y="30.394"/><use xlink:href="#33" y="32.565"/><use xlink:href="#34" y="36.907"/><use xlink:href="#35" y="41.249"/><use xlink:href="#36" y="43.42"/><use xlink:href="#37" y="45.591"/><use xlink:href="#38" y="47.762"/><use xlink:href="#39" y="49.933"/><use xlink:href="#40" y="52.104"/><use xlink:href="#41" y="54.275"/><use xlink:href="#42" y="56.446"/></svg><svg x="3956"><use xlink:href="#a"/><use xlink:href="#b" x="-.004" y="60.763"/><use xlink:href="#22"/><use xlink:href="#23" y="2.171"/><use xlink:href="#24" y="4.342"/><use xlink:href="#25" y="6.513"/><use xlink:href="#26" y="8.684"/><use xlink:href="#27" y="10.855"/><use xlink:href="#28" y="13.026"/><use xlink:href="#29" y="17.368"/><use xlink:href="#30" y="19.539"/><use xlink:href="#31" y="23.881"/><use xlink:href="#32" y="28.223"/><use xlink:href="#33" y="30.394"/><use xlink:href="#34" y="34.736"/><use xlink:href="#35" y="39.078"/><use xlink:href="#36" y="41.249"/><use xlink:href="#37" y="43.42"/><use xlink:href="#38" y="45.591"/><use xlink:href="#39" y="47.762"/><use xlink:href="#40" y="49.933"/><use xlink:href="#41" y="52.104"/><use xlink:href="#42" y="54.275"/><use xlink:href="#43" y="58.617"/></svg><svg x="4048"><use xlink:href="#a"/><use xlink:href="#b" x="-.004" y="60.763"/><use xlink:href="#24"/><use xlink:href="#25" y="2.171"/><use xlink:href="#26" y="4.342"/><use xlink:href="#27" y="6.513"/><use xlink:href="#28" y="8.684"/><use xlink:href="#29" y="13.026"/><use xlink:href="#30" y="15.197"/><use xlink:href="#31" y="19.539"/><use xlink:href="#32" y="23.881"/><use xlink:href="#33" y="26.052"/><use xlink:href="#34" y="30.394"/><use xlink:href="#35" y="34.736"/><use xlink:href="#36" y="36.907"/><use xlink:href="#37" y="39.078"/><use xlink:href="#38" y="41.249"/><use xlink:href="#39" y="43.42"/><use xlink:href="#40" y="45.591"/><use xlink:href="#41" y="47.762"/><use xlink:href="#42" y="49.933"/><use xlink:href="#43" y="54.275"/><use xlink:href="#44" y="58.617"/></svg><svg x="4140"><use xlink:href="#a"/><use xlink:href="#b" x="-.004" y="60.763"/><use xlink:href="#26"/><use xlink:href="#27" y="2.171"/><use xlink:href="#28" y="4.342"/><use xlink:href="#29" y="8.684"/><use xlink:href="#30" y="10.855"/><use xlink:href="#31" y="15.197"/><use xlink:href="#32" y="19.539"/><use xlink:href="#33" y="21.71"/><use xlink:href="#34" y="26.052"/><use xlink:href="#35" y="30.394"/><use xlink:href="#36" y="32.565"/><use xlink:href="#37" y="34.736"/><use xlink:href="#38" y="36.907"/><use xlink:href="#39" y="39.078"/><use xlink:href="#40" y="41.249"/><use xlink:href="#41" y="43.42"/><use xlink:href="#42" y="45.591"/><use xlink:href="#43" y="49.933"/><use xlink:href="#44" y="54.275"/><text y="60.287" class="g">āœ—</text><text x="4.008" y="60.287" class="g">Missing</text><text x="12.024" y="60.287" class="g">required</text><text x="21.042" y="60.287" class="g">flag:</text><text x="27.054" y="60.287" class="g">--function</text></svg></svg></g></g></svg></svg>