<svg xmlns="http://www.w3.org/2000/svg" xmlns:xlink="http://www.w3.org/1999/xlink" width="960" height="711.3"><rect width="960" height="711.3" rx="5" ry="5" class="a"/><svg y="0%" x="0%"><circle cx="20" cy="20" r="6" fill="#ff5f58"/><circle cx="40" cy="20" r="6" fill="#ffbd2e"/><circle cx="60" cy="20" r="6" fill="#18c132"/></svg><svg height="651.3" viewBox="0 0 92 65.13" width="920" x="15" xmlns="http://www.w3.org/2000/svg" xmlns:xlink="http://www.w3.org/1999/xlink" y="50"><style>@keyframes l{0%{transform:translateX(0)}6.8%{transform:translateX(-92px)}17.6%{transform:translateX(-184px)}31.7%{transform:translateX(-276px)}51.8%{transform:translateX(-368px)}65.8%{transform:translateX(-2484px)}86%{transform:translateX(-2576px)}to{transform:translateX(-2760px)}}.a{fill:#282d35}.f,.g{white-space:pre}.f{fill:#d290e4;font-weight:700}.g{fill:#b9c0cb}</style><g font-family="Monaco,Consolas,Menlo,'Bitstream Vera Sans Mono','Powerline Symbols',monospace" font-size="1.67"><defs><symbol id="1"><text y="1.67" class="f">▸</text><text x="2.004" y="1.67" class="f">python-pivot</text><text x="15.03" y="1.67" class="f">·</text><text x="17.034" y="1.67" class="f">Lambda</text><text x="24.048" y="1.67" class="f">Python</text><text x="31.062" y="1.67" class="f">3.9/3.10/3.11</text><text x="45.09" y="1.67" class="f">→</text><text x="47.094" y="1.67" class="f">3.12</text><text x="52.104" y="1.67" class="f">migration</text></symbol><symbol id="2"><text y="1.67" class="g">$</text><text x="2.004" y="1.67" class="g">python-pivot</text><text x="15.03" y="1.67" class="g">scan</text><text x="20.04" y="1.67" class="g">--fixture</text><text x="30.06" y="1.67" class="g">test/fixtures/lambda-inventory.json</text></symbol><symbol id="3"><text y="1.67" class="f">▸</text><text x="2.004" y="1.67" class="f">Scanning</text><text x="11.022" y="1.67" class="f">fixture</text><text x="19.038" y="1.67" class="f">test/fixtures/lambda-inventory.json</text></symbol><symbol id="4"><text y="1.67" style="white-space:pre" fill="#66c2cd">ℹ</text><text x="2.004" y="1.67" class="g">Scanned</text><text x="10.02" y="1.67" class="g">6</text><text x="12.024" y="1.67" class="g">Python</text><text x="19.038" y="1.67" class="g">Lambda</text><text x="26.052" y="1.67" class="g">function(s).</text><text x="39.078" y="1.67" class="g">3</text><text x="41.082" y="1.67" class="g">need</text><text x="46.092" y="1.67" class="g">migration.</text></symbol><symbol id="5"><text y="1.67" class="g">FUNCTION</text><text x="19.038" y="1.67" class="g">RUNTIME</text><text x="31.062" y="1.67" class="g">REGION</text><text x="42.084" y="1.67" class="g">SEVERITY</text><text x="56.112" y="1.67" class="g">DAYS-TO-EOL</text><text x="69.138" y="1.67" class="g">TARGET</text></symbol><symbol id="6"><text y="1.67" class="g">---------------------------------------------------------------------------</text></symbol><symbol id="7"><text y="1.67" class="g">payment-webhook</text><text x="19.038" y="1.67" class="g">python3.9</text><text x="31.062" y="1.67" class="g">us-east-1</text><text x="42.084" y="1.67" class="g">critical-eol</text><text x="63.126" y="1.67" class="g">-134</text><text x="69.138" y="1.67" class="g">python3.12</text></symbol><symbol id="8"><text y="1.67" class="g">analytics-daily</text><text x="19.038" y="1.67" class="g">python3.8</text><text x="31.062" y="1.67" class="g">us-east-1</text><text x="42.084" y="1.67" class="g">critical-eol</text><text x="63.126" y="1.67" class="g">-561</text><text x="69.138" y="1.67" class="g">python3.12</text></symbol><symbol id="9"><text y="1.67" class="g">image-resize</text><text x="19.038" y="1.67" class="g">python3.10</text><text x="31.062" y="1.67" class="g">us-east-2</text><text x="42.084" y="1.67" class="g">low</text><text x="64.128" y="1.67" class="g">186</text><text x="69.138" y="1.67" class="g">python3.12</text></symbol><symbol id="10"><text y="1.67" class="g">slack-notify</text><text x="19.038" y="1.67" class="g">python3.11</text><text x="31.062" y="1.67" class="g">us-east-1</text><text x="42.084" y="1.67" class="g">low</text><text x="64.128" y="1.67" class="g">428</text><text x="69.138" y="1.67" class="g">python3.12</text></symbol><symbol id="11"><text y="1.67" class="g">order-fulfillment</text><text x="19.038" y="1.67" class="g">python3.12</text><text x="31.062" y="1.67" class="g">us-east-1</text><text x="42.084" y="1.67" class="g">ok</text><text x="66.132" y="1.67" class="g">—</text><text x="69.138" y="1.67" class="g">python3.12</text></symbol><symbol id="12"><text y="1.67" class="g">legacy-etl</text><text x="19.038" y="1.67" class="g">python3.7</text><text x="31.062" y="1.67" class="g">eu-west-1</text><text x="42.084" y="1.67" class="g">critical-eol</text><text x="63.126" y="1.67" class="g">-883</text><text x="69.138" y="1.67" class="g">python3.12</text></symbol><symbol id="13"><text y="1.67" style="white-space:pre" fill="#dbab79">⚠</text><text x="2.004" y="1.67" class="g">python3.9</text><text x="12.024" y="1.67" class="g">hits</text><text x="17.034" y="1.67" class="g">EOL</text><text x="21.042" y="1.67" class="g">in</text><text x="24.048" y="1.67" class="g">-134</text><text x="29.058" y="1.67" class="g">day(s).</text><text x="37.074" y="1.67" class="g">Next:</text><text x="43.086" y="1.67" class="g">`python-pivot</text><text x="57.114" y="1.67" class="g">codemod`</text></symbol><symbol id="14"><text y="1.67" class="g">$</text><text x="2.004" y="1.67" class="g">python-pivot</text><text x="15.03" y="1.67" class="g">audit</text><text x="21.042" y="1.67" class="g">test/fixtures/requirements.txt</text></symbol><symbol id="15"><text y="1.67" class="g">▸</text><text x="2.004" y="1.67" class="g">Native-wheel</text><text x="15.03" y="1.67" class="g">audit</text><text x="21.042" y="1.67" class="g">·</text><text x="23.046" y="1.67" class="g">test/fixtures/requirements.txt</text></symbol><symbol id="16"><text x="2.004" y="1.67" class="g">[high]</text><text x="9.018" y="1.67" class="g">boto3</text><text x="15.03" y="1.67" class="g">declared===1.26.0</text><text x="33.066" y="1.67" class="g">·</text><text x="35.07" y="1.67" class="g">needs</text><text x="41.082" y="1.67" class="g">&gt;=1.29.0</text></symbol><symbol id="17"><text x="6.012" y="1.67" class="g">1.29+</text><text x="12.024" y="1.67" class="g">tested</text><text x="19.038" y="1.67" class="g">on</text><text x="22.044" y="1.67" class="g">cp312.</text></symbol><symbol id="18"><text x="2.004" y="1.67" class="g">[high]</text><text x="9.018" y="1.67" class="g">numpy</text><text x="15.03" y="1.67" class="g">declared===1.24.0</text><text x="33.066" y="1.67" class="g">·</text><text x="35.07" y="1.67" class="g">needs</text><text x="41.082" y="1.67" class="g">&gt;=1.26.0</text></symbol><symbol id="19"><text x="6.012" y="1.67" class="g">1.26+</text><text x="12.024" y="1.67" class="g">ships</text><text x="18.036" y="1.67" class="g">cp312</text><text x="24.048" y="1.67" class="g">wheels.</text></symbol><symbol id="20"><text x="2.004" y="1.67" class="g">[high]</text><text x="9.018" y="1.67" class="g">pandas</text><text x="16.032" y="1.67" class="g">declared===2.0.3</text><text x="33.066" y="1.67" class="g">·</text><text x="35.07" y="1.67" class="g">needs</text><text x="41.082" y="1.67" class="g">&gt;=2.1.1</text></symbol><symbol id="21"><text x="6.012" y="1.67" class="g">2.1.1+</text><text x="13.026" y="1.67" class="g">for</text><text x="17.034" y="1.67" class="g">cp312.</text></symbol><symbol id="22"><text x="2.004" y="1.67" class="g">[high]</text><text x="9.018" y="1.67" class="g">cryptography</text><text x="22.044" y="1.67" class="g">declared===40.0.0</text><text x="40.08" y="1.67" class="g">·</text><text x="42.084" y="1.67" class="g">needs</text><text x="48.096" y="1.67" class="g">&gt;=41.0.5</text></symbol><symbol id="23"><text x="6.012" y="1.67" class="g">41.0.5+</text><text x="14.028" y="1.67" class="g">for</text><text x="18.036" y="1.67" class="g">cp312</text><text x="24.048" y="1.67" class="g">(libssl3).</text></symbol><symbol id="24"><text x="2.004" y="1.67" class="g">[high]</text><text x="9.018" y="1.67" class="g">bcrypt</text><text x="16.032" y="1.67" class="g">declared===4.0.1</text><text x="33.066" y="1.67" class="g">·</text><text x="35.07" y="1.67" class="g">needs</text><text x="41.082" y="1.67" class="g">&gt;=4.1.1</text></symbol><symbol id="25"><text x="6.012" y="1.67" class="g">4.1.1+</text><text x="13.026" y="1.67" class="g">for</text><text x="17.034" y="1.67" class="g">cp312.</text></symbol><symbol id="26"><text x="2.004" y="1.67" class="g">[high]</text><text x="9.018" y="1.67" class="g">pillow</text><text x="16.032" y="1.67" class="g">declared===9.5.0</text><text x="33.066" y="1.67" class="g">·</text><text x="35.07" y="1.67" class="g">needs</text><text x="41.082" y="1.67" class="g">&gt;=10.1.0</text></symbol><symbol id="27"><text x="6.012" y="1.67" class="g">10.1.0+</text><text x="14.028" y="1.67" class="g">for</text><text x="18.036" y="1.67" class="g">cp312.</text></symbol><symbol id="28"><text x="2.004" y="1.67" class="g">[high]</text><text x="9.018" y="1.67" class="g">lxml</text><text x="14.028" y="1.67" class="g">declared===4.9.2</text><text x="31.062" y="1.67" class="g">·</text><text x="33.066" y="1.67" class="g">needs</text><text x="39.078" y="1.67" class="g">&gt;=4.9.4</text></symbol><symbol id="29"><text x="6.012" y="1.67" class="g">4.9.4+</text><text x="13.026" y="1.67" class="g">for</text><text x="17.034" y="1.67" class="g">cp312.</text></symbol><symbol id="30"><text x="2.004" y="1.67" class="g">[high]</text><text x="9.018" y="1.67" class="g">pyyaml</text><text x="16.032" y="1.67" class="g">declared===5.4.1</text><text x="33.066" y="1.67" class="g">·</text><text x="35.07" y="1.67" class="g">needs</text><text x="41.082" y="1.67" class="g">&gt;=6.0.1</text></symbol><symbol id="31"><text x="6.012" y="1.67" class="g">6.0.1+</text><text x="13.026" y="1.67" class="g">for</text><text x="17.034" y="1.67" class="g">cp312.</text></symbol><symbol id="32"><text x="2.004" y="1.67" class="g">[high]</text><text x="9.018" y="1.67" class="g">psycopg2-binary</text><text x="25.05" y="1.67" class="g">declared===2.9.5</text><text x="42.084" y="1.67" class="g">·</text><text x="44.088" y="1.67" class="g">needs</text><text x="50.1" y="1.67" class="g">&gt;=2.9.9</text></symbol><symbol id="33"><text x="6.012" y="1.67" class="g">2.9.9+</text><text x="13.026" y="1.67" class="g">for</text><text x="17.034" y="1.67" class="g">cp312.</text></symbol><symbol id="34"><text x="2.004" y="1.67" class="g">[critical]</text><text x="13.026" y="1.67" class="g">python-snappy</text><text x="27.054" y="1.67" class="g">declared===0.6.1</text><text x="44.088" y="1.67" class="g">·</text><text x="46.092" y="1.67" class="g">needs</text><text x="52.104" y="1.67" class="g">(none</text><text x="58.116" y="1.67" class="g">—</text><text x="60.12" y="1.67" class="g">no</text><text x="63.126" y="1.67" class="g">cp312</text><text x="69.138" y="1.67" class="g">wheels)</text></symbol><symbol id="35"><text x="6.012" y="1.67" class="g">No</text><text x="9.018" y="1.67" class="g">cp312</text><text x="15.03" y="1.67" class="g">wheels.</text><text x="23.046" y="1.67" class="g">Switch</text><text x="30.06" y="1.67" class="g">to</text><text x="33.066" y="1.67" class="g">`cramjam`</text><text x="43.086" y="1.67" class="g">or</text><text x="46.092" y="1.67" class="g">`plyvel`.</text></symbol><symbol id="36"><text y="1.67" class="g">⚠</text><text x="2.004" y="1.67" class="g">10</text><text x="5.01" y="1.67" class="g">package(s)</text><text x="16.032" y="1.67" class="g">need</text><text x="21.042" y="1.67" class="g">attention</text><text x="31.062" y="1.67" class="g">before</text><text x="38.076" y="1.67" class="g">Python</text><text x="45.09" y="1.67" class="g">3.12.</text></symbol><symbol id="37"><text y="1.67" class="g">$</text><text x="2.004" y="1.67" class="g">python-pivot</text><text x="15.03" y="1.67" class="g">deploy</text><text x="22.044" y="1.67" class="g">--function</text><text x="33.066" y="1.67" class="g">payment-webhook</text><text x="49.098" y="1.67" class="g">--plan-only</text></symbol><symbol id="38"><text y="1.67" class="g">⚠</text><text x="2.004" y="1.67" class="g">DRY-RUN</text><text x="10.02" y="1.67" class="g">—</text><text x="12.024" y="1.67" class="g">pass</text><text x="17.034" y="1.67" class="g">--apply</text><text x="25.05" y="1.67" class="g">to</text><text x="28.056" y="1.67" class="g">execute.</text><text x="37.074" y="1.67" class="g">Requires</text><text x="46.092" y="1.67" class="g">--alarm</text><text x="54.108" y="1.67" class="g">&lt;ARN&gt;.</text></symbol><symbol id="a"><path fill="transparent" d="M0 0h92v31H0z"/></symbol><symbol id="b"><path fill="#6f7683" d="M0 0h1.102v2.171H0z"/></symbol></defs><path class="a" d="M0 0h92v65.13H0z"/><g style="animation-duration:7.442729999999999s;animation-iteration-count:infinite;animation-name:l;animation-timing-function:steps(1,end)"><svg width="2852"><svg><use xlink:href="#a"/><use xlink:href="#b" x="-.004"/></svg><svg x="92"><use xlink:href="#a"/><use xlink:href="#b" x="-.004" y="2.146"/><use xlink:href="#1"/></svg><svg x="184"><use xlink:href="#a"/><use xlink:href="#b" x="-.004" y="6.488"/><use xlink:href="#1"/><use xlink:href="#2" y="4.342"/></svg><svg x="276"><use xlink:href="#a"/><use xlink:href="#b" x="-.004" y="32.54"/><use xlink:href="#1"/><use xlink:href="#2" y="4.342"/><use xlink:href="#3" y="8.684"/><use xlink:href="#4" y="10.855"/><use xlink:href="#5" y="13.026"/><use xlink:href="#6" y="15.197"/><use xlink:href="#7" y="17.368"/><use xlink:href="#8" y="19.539"/><use xlink:href="#9" y="21.71"/><use xlink:href="#10" y="23.881"/><use xlink:href="#11" y="26.052"/><use xlink:href="#12" y="28.223"/><use xlink:href="#13" y="30.394"/></svg><svg x="368"><use xlink:href="#a"/><use xlink:href="#b" x="-.004" y="36.882"/><use xlink:href="#1"/><use xlink:href="#2" y="4.342"/><use xlink:href="#3" y="8.684"/><use xlink:href="#4" y="10.855"/><use xlink:href="#5" y="13.026"/><use xlink:href="#6" y="15.197"/><use xlink:href="#7" y="17.368"/><use xlink:href="#8" y="19.539"/><use xlink:href="#9" y="21.71"/><use xlink:href="#10" y="23.881"/><use xlink:href="#11" y="26.052"/><use xlink:href="#12" y="28.223"/><use xlink:href="#13" y="30.394"/><use xlink:href="#14" y="34.736"/></svg><svg x="460"><use xlink:href="#a"/><use xlink:href="#b" x="-.004" y="39.053"/><use xlink:href="#1"/><use xlink:href="#2" y="4.342"/><use xlink:href="#3" y="8.684"/><use xlink:href="#4" y="10.855"/><use xlink:href="#5" y="13.026"/><use xlink:href="#6" y="15.197"/><use xlink:href="#7" y="17.368"/><use xlink:href="#8" y="19.539"/><use xlink:href="#9" y="21.71"/><use xlink:href="#10" y="23.881"/><use xlink:href="#11" y="26.052"/><use xlink:href="#12" y="28.223"/><use xlink:href="#13" y="30.394"/><use xlink:href="#14" y="34.736"/></svg><svg x="552"><use xlink:href="#a"/><use xlink:href="#b" x="-.004" y="41.224"/><use xlink:href="#1"/><use xlink:href="#2" y="4.342"/><use xlink:href="#3" y="8.684"/><use xlink:href="#4" y="10.855"/><use xlink:href="#5" y="13.026"/><use xlink:href="#6" y="15.197"/><use xlink:href="#7" y="17.368"/><use xlink:href="#8" y="19.539"/><use xlink:href="#9" y="21.71"/><use xlink:href="#10" y="23.881"/><use xlink:href="#11" y="26.052"/><use xlink:href="#12" y="28.223"/><use xlink:href="#13" y="30.394"/><use xlink:href="#14" y="34.736"/><use xlink:href="#15" y="39.078"/></svg><svg x="644"><use xlink:href="#a"/><use xlink:href="#b" x="-.004" y="43.395"/><use xlink:href="#1"/><use xlink:href="#2" y="4.342"/><use xlink:href="#3" y="8.684"/><use xlink:href="#4" y="10.855"/><use xlink:href="#5" y="13.026"/><use xlink:href="#6" y="15.197"/><use xlink:href="#7" y="17.368"/><use xlink:href="#8" y="19.539"/><use xlink:href="#9" y="21.71"/><use xlink:href="#10" y="23.881"/><use xlink:href="#11" y="26.052"/><use xlink:href="#12" y="28.223"/><use xlink:href="#13" y="30.394"/><use xlink:href="#14" y="34.736"/><use xlink:href="#15" y="39.078"/><use xlink:href="#16" y="41.249"/></svg><svg x="736"><use xlink:href="#a"/><use xlink:href="#b" x="-.004" y="45.566"/><use xlink:href="#1"/><use xlink:href="#2" y="4.342"/><use xlink:href="#3" y="8.684"/><use xlink:href="#4" y="10.855"/><use xlink:href="#5" y="13.026"/><use xlink:href="#6" y="15.197"/><use xlink:href="#7" y="17.368"/><use xlink:href="#8" y="19.539"/><use xlink:href="#9" y="21.71"/><use xlink:href="#10" y="23.881"/><use xlink:href="#11" y="26.052"/><use xlink:href="#12" y="28.223"/><use xlink:href="#13" y="30.394"/><use xlink:href="#14" y="34.736"/><use xlink:href="#15" y="39.078"/><use xlink:href="#16" y="41.249"/><use xlink:href="#17" y="43.42"/></svg><svg x="828"><use xlink:href="#a"/><use xlink:href="#b" x="-.004" y="47.737"/><use xlink:href="#1"/><use xlink:href="#2" y="4.342"/><use xlink:href="#3" y="8.684"/><use xlink:href="#4" y="10.855"/><use xlink:href="#5" y="13.026"/><use xlink:href="#6" y="15.197"/><use xlink:href="#7" y="17.368"/><use xlink:href="#8" y="19.539"/><use xlink:href="#9" y="21.71"/><use xlink:href="#10" y="23.881"/><use xlink:href="#11" y="26.052"/><use xlink:href="#12" y="28.223"/><use xlink:href="#13" y="30.394"/><use xlink:href="#14" y="34.736"/><use xlink:href="#15" y="39.078"/><use xlink:href="#16" y="41.249"/><use xlink:href="#17" y="43.42"/><use xlink:href="#18" y="45.591"/></svg><svg x="920"><use xlink:href="#a"/><use xlink:href="#b" x="-.004" y="49.908"/><use xlink:href="#1"/><use xlink:href="#2" y="4.342"/><use xlink:href="#3" y="8.684"/><use xlink:href="#4" y="10.855"/><use xlink:href="#5" y="13.026"/><use xlink:href="#6" y="15.197"/><use xlink:href="#7" y="17.368"/><use xlink:href="#8" y="19.539"/><use xlink:href="#9" y="21.71"/><use xlink:href="#10" y="23.881"/><use xlink:href="#11" y="26.052"/><use xlink:href="#12" y="28.223"/><use xlink:href="#13" y="30.394"/><use xlink:href="#14" y="34.736"/><use xlink:href="#15" y="39.078"/><use xlink:href="#16" y="41.249"/><use xlink:href="#17" y="43.42"/><use xlink:href="#18" y="45.591"/><use xlink:href="#19" y="47.762"/></svg><svg x="1012"><use xlink:href="#a"/><use xlink:href="#b" x="-.004" y="52.079"/><use xlink:href="#1"/><use xlink:href="#2" y="4.342"/><use xlink:href="#3" y="8.684"/><use xlink:href="#4" y="10.855"/><use xlink:href="#5" y="13.026"/><use xlink:href="#6" y="15.197"/><use xlink:href="#7" y="17.368"/><use xlink:href="#8" y="19.539"/><use xlink:href="#9" y="21.71"/><use xlink:href="#10" y="23.881"/><use xlink:href="#11" y="26.052"/><use xlink:href="#12" y="28.223"/><use xlink:href="#13" y="30.394"/><use xlink:href="#14" y="34.736"/><use xlink:href="#15" y="39.078"/><use xlink:href="#16" y="41.249"/><use xlink:href="#17" y="43.42"/><use xlink:href="#18" y="45.591"/><use xlink:href="#19" y="47.762"/><use xlink:href="#20" y="49.933"/></svg><svg x="1104"><use xlink:href="#a"/><use xlink:href="#b" x="-.004" y="54.25"/><use xlink:href="#1"/><use xlink:href="#2" y="4.342"/><use xlink:href="#3" y="8.684"/><use xlink:href="#4" y="10.855"/><use xlink:href="#5" y="13.026"/><use xlink:href="#6" y="15.197"/><use xlink:href="#7" y="17.368"/><use xlink:href="#8" y="19.539"/><use xlink:href="#9" y="21.71"/><use xlink:href="#10" y="23.881"/><use xlink:href="#11" y="26.052"/><use xlink:href="#12" y="28.223"/><use xlink:href="#13" y="30.394"/><use xlink:href="#14" y="34.736"/><use xlink:href="#15" y="39.078"/><use xlink:href="#16" y="41.249"/><use xlink:href="#17" y="43.42"/><use xlink:href="#18" y="45.591"/><use xlink:href="#19" y="47.762"/><use xlink:href="#20" y="49.933"/><use xlink:href="#21" y="52.104"/></svg><svg x="1196"><use xlink:href="#a"/><use xlink:href="#b" x="-.004" y="56.421"/><use xlink:href="#1"/><use xlink:href="#2" y="4.342"/><use xlink:href="#3" y="8.684"/><use xlink:href="#4" y="10.855"/><use xlink:href="#5" y="13.026"/><use xlink:href="#6" y="15.197"/><use xlink:href="#7" y="17.368"/><use xlink:href="#8" y="19.539"/><use xlink:href="#9" y="21.71"/><use xlink:href="#10" y="23.881"/><use xlink:href="#11" y="26.052"/><use xlink:href="#12" y="28.223"/><use xlink:href="#13" y="30.394"/><use xlink:href="#14" y="34.736"/><use xlink:href="#15" y="39.078"/><use xlink:href="#16" y="41.249"/><use xlink:href="#17" y="43.42"/><use xlink:href="#18" y="45.591"/><use xlink:href="#19" y="47.762"/><use xlink:href="#20" y="49.933"/><use xlink:href="#21" y="52.104"/><use xlink:href="#22" y="54.275"/></svg><svg x="1288"><use xlink:href="#a"/><use xlink:href="#b" x="-.004" y="58.592"/><use xlink:href="#1"/><use xlink:href="#2" y="4.342"/><use xlink:href="#3" y="8.684"/><use xlink:href="#4" y="10.855"/><use xlink:href="#5" y="13.026"/><use xlink:href="#6" y="15.197"/><use xlink:href="#7" y="17.368"/><use xlink:href="#8" y="19.539"/><use xlink:href="#9" y="21.71"/><use xlink:href="#10" y="23.881"/><use xlink:href="#11" y="26.052"/><use xlink:href="#12" y="28.223"/><use xlink:href="#13" y="30.394"/><use xlink:href="#14" y="34.736"/><use xlink:href="#15" y="39.078"/><use xlink:href="#16" y="41.249"/><use xlink:href="#17" y="43.42"/><use xlink:href="#18" y="45.591"/><use xlink:href="#19" y="47.762"/><use xlink:href="#20" y="49.933"/><use xlink:href="#21" y="52.104"/><use xlink:href="#22" y="54.275"/><use xlink:href="#23" y="56.446"/></svg><svg x="1380"><use xlink:href="#a"/><use xlink:href="#b" x="-.004" y="60.763"/><use xlink:href="#1"/><use xlink:href="#2" y="4.342"/><use xlink:href="#3" y="8.684"/><use xlink:href="#4" y="10.855"/><use xlink:href="#5" y="13.026"/><use xlink:href="#6" y="15.197"/><use xlink:href="#7" y="17.368"/><use xlink:href="#8" y="19.539"/><use xlink:href="#9" y="21.71"/><use xlink:href="#10" y="23.881"/><use xlink:href="#11" y="26.052"/><use xlink:href="#12" y="28.223"/><use xlink:href="#13" y="30.394"/><use xlink:href="#14" y="34.736"/><use xlink:href="#15" y="39.078"/><use xlink:href="#16" y="41.249"/><use xlink:href="#17" y="43.42"/><use xlink:href="#18" y="45.591"/><use xlink:href="#19" y="47.762"/><use xlink:href="#20" y="49.933"/><use xlink:href="#21" y="52.104"/><use xlink:href="#22" y="54.275"/><use xlink:href="#23" y="56.446"/><use xlink:href="#24" y="58.617"/></svg><svg x="1472"><use xlink:href="#a"/><use xlink:href="#b" x="-.004" y="62.934"/><use xlink:href="#1"/><use xlink:href="#2" y="4.342"/><use xlink:href="#3" y="8.684"/><use xlink:href="#4" y="10.855"/><use xlink:href="#5" y="13.026"/><use xlink:href="#6" y="15.197"/><use xlink:href="#7" y="17.368"/><use xlink:href="#8" y="19.539"/><use xlink:href="#9" y="21.71"/><use xlink:href="#10" y="23.881"/><use xlink:href="#11" y="26.052"/><use xlink:href="#12" y="28.223"/><use xlink:href="#13" y="30.394"/><use xlink:href="#14" y="34.736"/><use xlink:href="#15" y="39.078"/><use xlink:href="#16" y="41.249"/><use xlink:href="#17" y="43.42"/><use xlink:href="#18" y="45.591"/><use xlink:href="#19" y="47.762"/><use xlink:href="#20" y="49.933"/><use xlink:href="#21" y="52.104"/><use xlink:href="#22" y="54.275"/><use xlink:href="#23" y="56.446"/><use xlink:href="#24" y="58.617"/><use xlink:href="#25" y="60.788"/></svg><svg x="1564"><use xlink:href="#a"/><use xlink:href="#b" x="-.004" y="65.105"/><use xlink:href="#1"/><use xlink:href="#2" y="4.342"/><use xlink:href="#3" y="8.684"/><use xlink:href="#4" y="10.855"/><use xlink:href="#5" y="13.026"/><use xlink:href="#6" y="15.197"/><use xlink:href="#7" y="17.368"/><use xlink:href="#8" y="19.539"/><use xlink:href="#9" y="21.71"/><use xlink:href="#10" y="23.881"/><use xlink:href="#11" y="26.052"/><use xlink:href="#12" y="28.223"/><use xlink:href="#13" y="30.394"/><use xlink:href="#14" y="34.736"/><use xlink:href="#15" y="39.078"/><use xlink:href="#16" y="41.249"/><use xlink:href="#17" y="43.42"/><use xlink:href="#18" y="45.591"/><use xlink:href="#19" y="47.762"/><use xlink:href="#20" y="49.933"/><use xlink:href="#21" y="52.104"/><use xlink:href="#22" y="54.275"/><use xlink:href="#23" y="56.446"/><use xlink:href="#24" y="58.617"/><use xlink:href="#25" y="60.788"/><use xlink:href="#26" y="62.959"/></svg><svg x="1656"><use xlink:href="#a"/><use xlink:href="#b" x="-.004" y="65.105"/><use xlink:href="#2" y="2.171"/><use xlink:href="#3" y="6.513"/><use xlink:href="#4" y="8.684"/><use xlink:href="#5" y="10.855"/><use xlink:href="#6" y="13.026"/><use xlink:href="#7" y="15.197"/><use xlink:href="#8" y="17.368"/><use xlink:href="#9" y="19.539"/><use xlink:href="#10" y="21.71"/><use xlink:href="#11" y="23.881"/><use xlink:href="#12" y="26.052"/><use xlink:href="#13" y="28.223"/><use xlink:href="#14" y="32.565"/><use xlink:href="#15" y="36.907"/><use xlink:href="#16" y="39.078"/><use xlink:href="#17" y="41.249"/><use xlink:href="#18" y="43.42"/><use xlink:href="#19" y="45.591"/><use xlink:href="#20" y="47.762"/><use xlink:href="#21" y="49.933"/><use xlink:href="#22" y="52.104"/><use xlink:href="#23" y="54.275"/><use xlink:href="#24" y="56.446"/><use xlink:href="#25" y="58.617"/><use xlink:href="#26" y="60.788"/><use xlink:href="#27" y="62.959"/></svg><svg x="1748"><use xlink:href="#a"/><use xlink:href="#b" x="-.004" y="65.105"/><use xlink:href="#2"/><use xlink:href="#3" y="4.342"/><use xlink:href="#4" y="6.513"/><use xlink:href="#5" y="8.684"/><use xlink:href="#6" y="10.855"/><use xlink:href="#7" y="13.026"/><use xlink:href="#8" y="15.197"/><use xlink:href="#9" y="17.368"/><use xlink:href="#10" y="19.539"/><use xlink:href="#11" y="21.71"/><use xlink:href="#12" y="23.881"/><use xlink:href="#13" y="26.052"/><use xlink:href="#14" y="30.394"/><use xlink:href="#15" y="34.736"/><use xlink:href="#16" y="36.907"/><use xlink:href="#17" y="39.078"/><use xlink:href="#18" y="41.249"/><use xlink:href="#19" y="43.42"/><use xlink:href="#20" y="45.591"/><use xlink:href="#21" y="47.762"/><use xlink:href="#22" y="49.933"/><use xlink:href="#23" y="52.104"/><use xlink:href="#24" y="54.275"/><use xlink:href="#25" y="56.446"/><use xlink:href="#26" y="58.617"/><use xlink:href="#27" y="60.788"/><use xlink:href="#28" y="62.959"/></svg><svg x="1840"><use xlink:href="#a"/><use xlink:href="#b" x="-.004" y="65.105"/><use xlink:href="#3" y="2.171"/><use xlink:href="#4" y="4.342"/><use xlink:href="#5" y="6.513"/><use xlink:href="#6" y="8.684"/><use xlink:href="#7" y="10.855"/><use xlink:href="#8" y="13.026"/><use xlink:href="#9" y="15.197"/><use xlink:href="#10" y="17.368"/><use xlink:href="#11" y="19.539"/><use xlink:href="#12" y="21.71"/><use xlink:href="#13" y="23.881"/><use xlink:href="#14" y="28.223"/><use xlink:href="#15" y="32.565"/><use xlink:href="#16" y="34.736"/><use xlink:href="#17" y="36.907"/><use xlink:href="#18" y="39.078"/><use xlink:href="#19" y="41.249"/><use xlink:href="#20" y="43.42"/><use xlink:href="#21" y="45.591"/><use xlink:href="#22" y="47.762"/><use xlink:href="#23" y="49.933"/><use xlink:href="#24" y="52.104"/><use xlink:href="#25" y="54.275"/><use xlink:href="#26" y="56.446"/><use xlink:href="#27" y="58.617"/><use xlink:href="#28" y="60.788"/><use xlink:href="#29" y="62.959"/></svg><svg x="1932"><use xlink:href="#a"/><use xlink:href="#b" x="-.004" y="65.105"/><use xlink:href="#3"/><use xlink:href="#4" y="2.171"/><use xlink:href="#5" y="4.342"/><use xlink:href="#6" y="6.513"/><use xlink:href="#7" y="8.684"/><use xlink:href="#8" y="10.855"/><use xlink:href="#9" y="13.026"/><use xlink:href="#10" y="15.197"/><use xlink:href="#11" y="17.368"/><use xlink:href="#12" y="19.539"/><use xlink:href="#13" y="21.71"/><use xlink:href="#14" y="26.052"/><use xlink:href="#15" y="30.394"/><use xlink:href="#16" y="32.565"/><use xlink:href="#17" y="34.736"/><use xlink:href="#18" y="36.907"/><use xlink:href="#19" y="39.078"/><use xlink:href="#20" y="41.249"/><use xlink:href="#21" y="43.42"/><use xlink:href="#22" y="45.591"/><use xlink:href="#23" y="47.762"/><use xlink:href="#24" y="49.933"/><use xlink:href="#25" y="52.104"/><use xlink:href="#26" y="54.275"/><use xlink:href="#27" y="56.446"/><use xlink:href="#28" y="58.617"/><use xlink:href="#29" y="60.788"/><use xlink:href="#30" y="62.959"/></svg><svg x="2024"><use xlink:href="#a"/><use xlink:href="#b" x="-.004" y="65.105"/><use xlink:href="#4"/><use xlink:href="#5" y="2.171"/><use xlink:href="#6" y="4.342"/><use xlink:href="#7" y="6.513"/><use xlink:href="#8" y="8.684"/><use xlink:href="#9" y="10.855"/><use xlink:href="#10" y="13.026"/><use xlink:href="#11" y="15.197"/><use xlink:href="#12" y="17.368"/><use xlink:href="#13" y="19.539"/><use xlink:href="#14" y="23.881"/><use xlink:href="#15" y="28.223"/><use xlink:href="#16" y="30.394"/><use xlink:href="#17" y="32.565"/><use xlink:href="#18" y="34.736"/><use xlink:href="#19" y="36.907"/><use xlink:href="#20" y="39.078"/><use xlink:href="#21" y="41.249"/><use xlink:href="#22" y="43.42"/><use xlink:href="#23" y="45.591"/><use xlink:href="#24" y="47.762"/><use xlink:href="#25" y="49.933"/><use xlink:href="#26" y="52.104"/><use xlink:href="#27" y="54.275"/><use xlink:href="#28" y="56.446"/><use xlink:href="#29" y="58.617"/><use xlink:href="#30" y="60.788"/><use xlink:href="#31" y="62.959"/></svg><svg x="2116"><use xlink:href="#a"/><use xlink:href="#b" x="-.004" y="65.105"/><use xlink:href="#5"/><use xlink:href="#6" y="2.171"/><use xlink:href="#7" y="4.342"/><use xlink:href="#8" y="6.513"/><use xlink:href="#9" y="8.684"/><use xlink:href="#10" y="10.855"/><use xlink:href="#11" y="13.026"/><use xlink:href="#12" y="15.197"/><use xlink:href="#13" y="17.368"/><use xlink:href="#14" y="21.71"/><use xlink:href="#15" y="26.052"/><use xlink:href="#16" y="28.223"/><use xlink:href="#17" y="30.394"/><use xlink:href="#18" y="32.565"/><use xlink:href="#19" y="34.736"/><use xlink:href="#20" y="36.907"/><use xlink:href="#21" y="39.078"/><use xlink:href="#22" y="41.249"/><use xlink:href="#23" y="43.42"/><use xlink:href="#24" y="45.591"/><use xlink:href="#25" y="47.762"/><use xlink:href="#26" y="49.933"/><use xlink:href="#27" y="52.104"/><use xlink:href="#28" y="54.275"/><use xlink:href="#29" y="56.446"/><use xlink:href="#30" y="58.617"/><use xlink:href="#31" y="60.788"/><use xlink:href="#32" y="62.959"/></svg><svg x="2208"><use xlink:href="#a"/><use xlink:href="#b" x="-.004" y="65.105"/><use xlink:href="#6"/><use xlink:href="#7" y="2.171"/><use xlink:href="#8" y="4.342"/><use xlink:href="#9" y="6.513"/><use xlink:href="#10" y="8.684"/><use xlink:href="#11" y="10.855"/><use xlink:href="#12" y="13.026"/><use xlink:href="#13" y="15.197"/><use xlink:href="#14" y="19.539"/><use xlink:href="#15" y="23.881"/><use xlink:href="#16" y="26.052"/><use xlink:href="#17" y="28.223"/><use xlink:href="#18" y="30.394"/><use xlink:href="#19" y="32.565"/><use xlink:href="#20" y="34.736"/><use xlink:href="#21" y="36.907"/><use xlink:href="#22" y="39.078"/><use xlink:href="#23" y="41.249"/><use xlink:href="#24" y="43.42"/><use xlink:href="#25" y="45.591"/><use xlink:href="#26" y="47.762"/><use xlink:href="#27" y="49.933"/><use xlink:href="#28" y="52.104"/><use xlink:href="#29" y="54.275"/><use xlink:href="#30" y="56.446"/><use xlink:href="#31" y="58.617"/><use xlink:href="#32" y="60.788"/><use xlink:href="#33" y="62.959"/></svg><svg x="2300"><use xlink:href="#a"/><use xlink:href="#b" x="-.004" y="65.105"/><use xlink:href="#7"/><use xlink:href="#8" y="2.171"/><use xlink:href="#9" y="4.342"/><use xlink:href="#10" y="6.513"/><use xlink:href="#11" y="8.684"/><use xlink:href="#12" y="10.855"/><use xlink:href="#13" y="13.026"/><use xlink:href="#14" y="17.368"/><use xlink:href="#15" y="21.71"/><use xlink:href="#16" y="23.881"/><use xlink:href="#17" y="26.052"/><use xlink:href="#18" y="28.223"/><use xlink:href="#19" y="30.394"/><use xlink:href="#20" y="32.565"/><use xlink:href="#21" y="34.736"/><use xlink:href="#22" y="36.907"/><use xlink:href="#23" y="39.078"/><use xlink:href="#24" y="41.249"/><use xlink:href="#25" y="43.42"/><use xlink:href="#26" y="45.591"/><use xlink:href="#27" y="47.762"/><use xlink:href="#28" y="49.933"/><use xlink:href="#29" y="52.104"/><use xlink:href="#30" y="54.275"/><use xlink:href="#31" y="56.446"/><use xlink:href="#32" y="58.617"/><use xlink:href="#33" y="60.788"/><use xlink:href="#34" y="62.959"/></svg><svg x="2392"><use xlink:href="#a"/><use xlink:href="#b" x="-.004" y="65.105"/><use xlink:href="#8"/><use xlink:href="#9" y="2.171"/><use xlink:href="#10" y="4.342"/><use xlink:href="#11" y="6.513"/><use xlink:href="#12" y="8.684"/><use xlink:href="#13" y="10.855"/><use xlink:href="#14" y="15.197"/><use xlink:href="#15" y="19.539"/><use xlink:href="#16" y="21.71"/><use xlink:href="#17" y="23.881"/><use xlink:href="#18" y="26.052"/><use xlink:href="#19" y="28.223"/><use xlink:href="#20" y="30.394"/><use xlink:href="#21" y="32.565"/><use xlink:href="#22" y="34.736"/><use xlink:href="#23" y="36.907"/><use xlink:href="#24" y="39.078"/><use xlink:href="#25" y="41.249"/><use xlink:href="#26" y="43.42"/><use xlink:href="#27" y="45.591"/><use xlink:href="#28" y="47.762"/><use xlink:href="#29" y="49.933"/><use xlink:href="#30" y="52.104"/><use xlink:href="#31" y="54.275"/><use xlink:href="#32" y="56.446"/><use xlink:href="#33" y="58.617"/><use xlink:href="#34" y="60.788"/><use xlink:href="#35" y="62.959"/></svg><svg x="2484"><use xlink:href="#a"/><use xlink:href="#b" x="-.004" y="65.105"/><use xlink:href="#9"/><use xlink:href="#10" y="2.171"/><use xlink:href="#11" y="4.342"/><use xlink:href="#12" y="6.513"/><use xlink:href="#13" y="8.684"/><use xlink:href="#14" y="13.026"/><use xlink:href="#15" y="17.368"/><use xlink:href="#16" y="19.539"/><use xlink:href="#17" y="21.71"/><use xlink:href="#18" y="23.881"/><use xlink:href="#19" y="26.052"/><use xlink:href="#20" y="28.223"/><use xlink:href="#21" y="30.394"/><use xlink:href="#22" y="32.565"/><use xlink:href="#23" y="34.736"/><use xlink:href="#24" y="36.907"/><use xlink:href="#25" y="39.078"/><use xlink:href="#26" y="41.249"/><use xlink:href="#27" y="43.42"/><use xlink:href="#28" y="45.591"/><use xlink:href="#29" y="47.762"/><use xlink:href="#30" y="49.933"/><use xlink:href="#31" y="52.104"/><use xlink:href="#32" y="54.275"/><use xlink:href="#33" y="56.446"/><use xlink:href="#34" y="58.617"/><use xlink:href="#35" y="60.788"/><use xlink:href="#36" y="62.959"/></svg><svg x="2576"><use xlink:href="#a"/><use xlink:href="#b" x="-.004" y="65.105"/><use xlink:href="#11"/><use xlink:href="#12" y="2.171"/><use xlink:href="#13" y="4.342"/><use xlink:href="#14" y="8.684"/><use xlink:href="#15" y="13.026"/><use xlink:href="#16" y="15.197"/><use xlink:href="#17" y="17.368"/><use xlink:href="#18" y="19.539"/><use xlink:href="#19" y="21.71"/><use xlink:href="#20" y="23.881"/><use xlink:href="#21" y="26.052"/><use xlink:href="#22" y="28.223"/><use xlink:href="#23" y="30.394"/><use xlink:href="#24" y="32.565"/><use xlink:href="#25" y="34.736"/><use xlink:href="#26" y="36.907"/><use xlink:href="#27" y="39.078"/><use xlink:href="#28" y="41.249"/><use xlink:href="#29" y="43.42"/><use xlink:href="#30" y="45.591"/><use xlink:href="#31" y="47.762"/><use xlink:href="#32" y="49.933"/><use xlink:href="#33" y="52.104"/><use xlink:href="#34" y="54.275"/><use xlink:href="#35" y="56.446"/><use xlink:href="#36" y="58.617"/><use xlink:href="#37" y="62.959"/></svg><svg x="2668"><use xlink:href="#a"/><use xlink:href="#b" x="-.004" y="65.105"/><use xlink:href="#12"/><use xlink:href="#13" y="2.171"/><use xlink:href="#14" y="6.513"/><use xlink:href="#15" y="10.855"/><use xlink:href="#16" y="13.026"/><use xlink:href="#17" y="15.197"/><use xlink:href="#18" y="17.368"/><use xlink:href="#19" y="19.539"/><use xlink:href="#20" y="21.71"/><use xlink:href="#21" y="23.881"/><use xlink:href="#22" y="26.052"/><use xlink:href="#23" y="28.223"/><use xlink:href="#24" y="30.394"/><use xlink:href="#25" y="32.565"/><use xlink:href="#26" y="34.736"/><use xlink:href="#27" y="36.907"/><use xlink:href="#28" y="39.078"/><use xlink:href="#29" y="41.249"/><use xlink:href="#30" y="43.42"/><use xlink:href="#31" y="45.591"/><use xlink:href="#32" y="47.762"/><use xlink:href="#33" y="49.933"/><use xlink:href="#34" y="52.104"/><use xlink:href="#35" y="54.275"/><use xlink:href="#36" y="56.446"/><use xlink:href="#37" y="60.788"/><use xlink:href="#38" y="62.959"/></svg><svg x="2760"><use xlink:href="#a"/><use xlink:href="#b" x="-.004" y="65.105"/><use xlink:href="#27"/><use xlink:href="#28" y="2.171"/><use xlink:href="#29" y="4.342"/><use xlink:href="#30" y="6.513"/><use xlink:href="#31" y="8.684"/><use xlink:href="#32" y="10.855"/><use xlink:href="#33" y="13.026"/><use xlink:href="#34" y="15.197"/><use xlink:href="#35" y="17.368"/><use xlink:href="#36" y="19.539"/><use xlink:href="#37" y="23.881"/><use xlink:href="#38" y="26.052"/><text y="29.893" class="g">#</text><text x="2.004" y="29.893" class="g">Canary</text><text x="9.018" y="29.893" class="g">deployment</text><text x="20.04" y="29.893" class="g">plan</text><text x="25.05" y="29.893" class="g">for</text><text x="29.058" y="29.893" class="g">payment-webhook</text><text y="34.235" class="g">Target</text><text x="7.014" y="34.235" class="g">runtime</text><text x="17.034" y="34.235" class="g">:</text><text x="19.038" y="34.235" class="g">python3.12</text><text y="36.406" class="g">Alias</text><text x="17.034" y="36.406" class="g">:</text><text x="19.038" y="36.406" class="g">live</text><text y="38.577" class="g">Alarm</text><text x="6.012" y="38.577" class="g">ARN</text><text x="17.034" y="38.577" class="g">:</text><text x="19.038" y="38.577" class="g">(none</text><text x="25.05" y="38.577" class="g">—</text><text x="27.054" y="38.577" class="g">deploy</text><text x="34.068" y="38.577" class="g">will</text><text x="39.078" y="38.577" class="g">REFUSE</text><text x="46.092" y="38.577" class="g">without</text><text x="54.108" y="38.577" class="g">one)</text><text y="40.748" class="g">Stages</text><text x="17.034" y="40.748" class="g">:</text><text x="19.038" y="40.748" class="g">[5,</text><text x="23.046" y="40.748" class="g">25,</text><text x="27.054" y="40.748" class="g">50,</text><text x="31.062" y="40.748" class="g">100]</text><text y="42.919" class="g">Dwell</text><text x="6.012" y="42.919" class="g">per</text><text x="10.02" y="42.919" class="g">stage</text><text x="17.034" y="42.919" class="g">:</text><text x="19.038" y="42.919" class="g">60s</text><text y="47.261" class="g">##</text><text x="3.006" y="47.261" class="g">Steps</text><text y="49.432" class="g">1.</text><text x="3.006" y="49.432" class="g">Publish</text><text x="11.022" y="49.432" class="g">new</text><text x="15.03" y="49.432" class="g">version</text><text x="23.046" y="49.432" class="g">of</text><text x="26.052" y="49.432" class="g">`payment-webhook`</text><text x="44.088" y="49.432" class="g">on</text><text x="47.094" y="49.432" class="g">`python3.12`</text><text y="51.603" class="g">2.</text><text x="3.006" y="51.603" class="g">Record</text><text x="10.02" y="51.603" class="g">current</text><text x="18.036" y="51.603" class="g">alias</text><text x="24.048" y="51.603" class="g">routing</text><text x="32.064" y="51.603" class="g">as</text><text x="35.07" y="51.603" class="g">LATEST_STABLE</text><text y="53.774" class="g">3.</text><text x="3.006" y="53.774" class="g">Update</text><text x="10.02" y="53.774" class="g">alias</text><text x="16.032" y="53.774" class="g">`live`</text><text x="23.046" y="53.774" class="g">→</text><text x="25.05" y="53.774" class="g">route</text><text x="31.062" y="53.774" class="g">5%</text><text x="34.068" y="53.774" class="g">to</text><text x="37.074" y="53.774" class="g">new</text><text x="41.082" y="53.774" class="g">version,</text><text x="50.1" y="53.774" class="g">wait</text><text x="55.11" y="53.774" class="g">60s,</text><text x="60.12" y="53.774" class="g">then</text><text x="65.13" y="53.774" class="g">check</text><text x="71.142" y="53.774" class="g">alarm</text><text x="77.154" y="53.774" class="g">state</text><text y="55.945" class="g">4.</text><text x="3.006" y="55.945" class="g">Update</text><text x="10.02" y="55.945" class="g">alias</text><text x="16.032" y="55.945" class="g">`live`</text><text x="23.046" y="55.945" class="g">→</text><text x="25.05" y="55.945" class="g">route</text><text x="31.062" y="55.945" class="g">25%</text><text x="35.07" y="55.945" class="g">to</text><text x="38.076" y="55.945" class="g">new</text><text x="42.084" y="55.945" class="g">version,</text><text x="51.102" y="55.945" class="g">wait</text><text x="56.112" y="55.945" class="g">60s,</text><text x="61.122" y="55.945" class="g">then</text><text x="66.132" y="55.945" class="g">check</text><text x="72.144" y="55.945" class="g">alarm</text><text x="78.156" y="55.945" class="g">state</text><text y="58.116" class="g">5.</text><text x="3.006" y="58.116" class="g">Update</text><text x="10.02" y="58.116" class="g">alias</text><text x="16.032" y="58.116" class="g">`live`</text><text x="23.046" y="58.116" class="g">→</text><text x="25.05" y="58.116" class="g">route</text><text x="31.062" y="58.116" class="g">50%</text><text x="35.07" y="58.116" class="g">to</text><text x="38.076" y="58.116" class="g">new</text><text x="42.084" y="58.116" class="g">version,</text><text x="51.102" y="58.116" class="g">wait</text><text x="56.112" y="58.116" class="g">60s,</text><text x="61.122" y="58.116" class="g">then</text><text x="66.132" y="58.116" class="g">check</text><text x="72.144" y="58.116" class="g">alarm</text><text x="78.156" y="58.116" class="g">state</text><text y="60.287" class="g">6.</text><text x="3.006" y="60.287" class="g">Update</text><text x="10.02" y="60.287" class="g">alias</text><text x="16.032" y="60.287" class="g">`live`</text><text x="23.046" y="60.287" class="g">→</text><text x="25.05" y="60.287" class="g">route</text><text x="31.062" y="60.287" class="g">100%</text><text x="36.072" y="60.287" class="g">to</text><text x="39.078" y="60.287" class="g">new</text><text x="43.086" y="60.287" class="g">version,</text><text x="52.104" y="60.287" class="g">wait</text><text x="57.114" y="60.287" class="g">60s,</text><text x="62.124" y="60.287" class="g">then</text><text x="67.134" y="60.287" class="g">check</text><text x="73.146" y="60.287" class="g">alarm</text><text x="79.158" y="60.287" class="g">state</text><text y="62.458" class="g">7.</text><text x="3.006" y="62.458" class="g">If</text><text x="6.012" y="62.458" class="g">any</text><text x="10.02" y="62.458" class="g">alarm</text><text x="16.032" y="62.458" class="g">trips</text><text x="22.044" y="62.458" class="g">at</text><text x="25.05" y="62.458" class="g">any</text><text x="29.058" y="62.458" class="g">stage,</text><text x="36.072" y="62.458" class="g">auto-rollback</text><text x="50.1" y="62.458" class="g">alias</text><text x="56.112" y="62.458" class="g">to</text><text x="59.118" y="62.458" class="g">LATEST_STABLE</text><text x="73.146" y="62.458" class="g">and</text><text x="77.154" y="62.458" class="g">halt</text><text y="64.629" class="g">8.</text><text x="3.006" y="64.629" class="g">On</text><text x="6.012" y="64.629" class="g">success,</text><text x="15.03" y="64.629" class="g">new</text><text x="19.038" y="64.629" class="g">version</text><text x="27.054" y="64.629" class="g">becomes</text><text x="35.07" y="64.629" class="g">100%.</text><text x="41.082" y="64.629" class="g">Previous</text><text x="50.1" y="64.629" class="g">version</text><text x="58.116" y="64.629" class="g">retained</text><text x="67.134" y="64.629" class="g">for</text><text x="71.142" y="64.629" class="g">manual</text><text x="78.156" y="64.629" class="g">rollback.</text></svg></svg></g></g></svg></svg>