<svg xmlns="http://www.w3.org/2000/svg" xmlns:xlink="http://www.w3.org/1999/xlink" width="960" height="711.3"><rect width="960" height="711.3" rx="5" ry="5" class="a"/><svg y="0%" x="0%"><circle cx="20" cy="20" r="6" fill="#ff5f58"/><circle cx="40" cy="20" r="6" fill="#ffbd2e"/><circle cx="60" cy="20" r="6" fill="#18c132"/></svg><svg height="651.3" viewBox="0 0 92 65.13" width="920" x="15" xmlns="http://www.w3.org/2000/svg" xmlns:xlink="http://www.w3.org/1999/xlink" y="50"><style>@keyframes o{0%{transform:translateX(0)}6.8%{transform:translateX(-92px)}17.6%{transform:translateX(-184px)}31.7%{transform:translateX(-368px)}51.8%{transform:translateX(-460px)}65.8%{transform:translateX(-552px)}86%{transform:translateX(-644px)}to{transform:translateX(-2484px)}}.a{fill:#282d35}.f,.g{white-space:pre}.f{fill:#d290e4;font-weight:700}.g{fill:#b9c0cb}.i{fill:#e88388}.i,.j,.l{white-space:pre}.j{fill:#b9c0cb;font-weight:700}.l{fill:#dbab79}</style><g font-family="Monaco,Consolas,Menlo,'Bitstream Vera Sans Mono','Powerline Symbols',monospace" font-size="1.67"><defs><symbol id="1"><text y="1.67" class="f">▸</text><text x="2.004" y="1.67" class="f">al2023-gate</text><text x="14.028" y="1.67" class="f">·</text><text x="16.032" y="1.67" class="f">Amazon</text><text x="23.046" y="1.67" class="f">Linux</text><text x="29.058" y="1.67" class="f">2</text><text x="31.062" y="1.67" class="f">→</text><text x="33.066" y="1.67" class="f">AL2023</text><text x="40.08" y="1.67" class="f">migration</text><text x="50.1" y="1.67" class="f">·</text><text x="52.104" y="1.67" class="f">63</text><text x="55.11" y="1.67" class="f">days</text><text x="60.12" y="1.67" class="f">to</text><text x="63.126" y="1.67" class="f">EOL</text></symbol><symbol id="2"><text y="1.67" class="g">$</text><text x="2.004" y="1.67" class="g">al2023-gate</text><text x="14.028" y="1.67" class="g">scan</text><text x="19.038" y="1.67" class="g">--fixture</text><text x="29.058" y="1.67" class="g">test/fixtures/inventory.json</text></symbol><symbol id="3"><text y="1.67" class="f">▸</text><text x="2.004" y="1.67" class="f">Scanning</text><text x="11.022" y="1.67" class="f">fixture</text><text x="19.038" y="1.67" class="f">test/fixtures/inventory.json</text></symbol><symbol id="4"><text y="1.67" style="white-space:pre" fill="#66c2cd">ℹ</text><text x="2.004" y="1.67" class="g">Scanned</text><text x="10.02" y="1.67" class="g">6</text><text x="12.024" y="1.67" class="g">resource(s).</text><text x="25.05" y="1.67" class="i">4</text><text x="27.054" y="1.67" class="i">AL2</text><text x="30.06" y="1.67" class="g">,</text><text x="32.064" y="1.67" class="i">0</text><text x="34.068" y="1.67" class="i">AL1</text></symbol><symbol id="5"><text y="1.67" class="j">Type</text><text x="24.048" y="1.67" class="j">Id</text><text x="62.124" y="1.67" class="j">Region</text><text x="74.148" y="1.67" class="j">Platform</text><text x="84.168" y="1.67" class="j">Severity</text></symbol><symbol id="6"><text y="1.67" style="white-space:pre" fill="#6f7783">--------------------------------------------------------------------------------------------</text></symbol><symbol id="7"><text y="1.67" class="g">ec2_instance</text><text x="24.048" y="1.67" class="g">i-0a1b2c3d4e5f60718</text><text x="62.124" y="1.67" class="g">us-east-1</text><text x="74.148" y="1.67" class="g">al2</text><text x="84.168" y="1.67" class="l">high</text></symbol><symbol id="8"><text y="1.67" class="g">launch_template</text><text x="24.048" y="1.67" class="g">lt-0f1e2d3c4b5a60978</text><text x="62.124" y="1.67" class="g">us-east-1</text><text x="74.148" y="1.67" class="g">al2</text><text x="84.168" y="1.67" class="l">high</text></symbol><symbol id="9"><text y="1.67" class="g">eks_nodegroup</text><text x="24.048" y="1.67" class="g">prod-cluster/ng-web-2a</text><text x="62.124" y="1.67" class="g">us-east-2</text><text x="74.148" y="1.67" class="g">al2</text><text x="84.168" y="1.67" class="l">high</text></symbol><symbol id="10"><text y="1.67" class="g">ecs_task_definition</text><text x="24.048" y="1.67" class="g">payment-worker:47</text><text x="62.124" y="1.67" class="g">us-east-1</text><text x="74.148" y="1.67" class="g">other</text><text x="84.168" y="1.67" class="l">ok</text></symbol><symbol id="11"><text y="1.67" class="g">beanstalk_environment</text><text x="24.048" y="1.67" class="g">analytics-prod-env</text><text x="62.124" y="1.67" class="g">eu-west-1</text><text x="74.148" y="1.67" class="g">al2</text><text x="84.168" y="1.67" class="l">high</text></symbol><symbol id="12"><text y="1.67" class="g">ec2_instance</text><text x="24.048" y="1.67" class="g">i-0ffffeeeeddddccbb</text><text x="62.124" y="1.67" class="g">us-east-1</text><text x="74.148" y="1.67" class="g">al2023</text><text x="84.168" y="1.67" class="l">ok</text></symbol><symbol id="13"><text y="1.67" class="l">⚠</text><text x="2.004" y="1.67" class="g">AL2</text><text x="6.012" y="1.67" class="g">EOL</text><text x="10.02" y="1.67" class="g">in</text><text x="13.026" y="1.67" class="g">63</text><text x="16.032" y="1.67" class="g">day(s).</text><text x="24.048" y="1.67" class="g">Next:</text><text x="30.06" y="1.67" class="g">`al2023-gate</text><text x="43.086" y="1.67" class="g">packer`</text><text x="51.102" y="1.67" class="g">to</text><text x="54.108" y="1.67" class="g">scaffold</text><text x="63.126" y="1.67" class="g">an</text><text x="66.132" y="1.67" class="g">AL2023</text><text x="73.146" y="1.67" class="g">AMI</text><text x="77.154" y="1.67" class="g">build.</text></symbol><symbol id="14"><text y="1.67" class="g">$</text><text x="2.004" y="1.67" class="g">al2023-gate</text><text x="14.028" y="1.67" class="g">remap</text><text x="20.04" y="1.67" class="g">docker</text><text x="27.054" y="1.67" class="g">nginx1</text><text x="34.068" y="1.67" class="g">python3.8</text><text x="44.088" y="1.67" class="g">php7.4</text><text x="51.102" y="1.67" class="g">ntp</text><text x="55.11" y="1.67" class="g">yum-utils</text></symbol><symbol id="15"><text y="1.67" class="g">AL2</text><text x="4.008" y="1.67" class="g">PACKAGE</text><text x="13.026" y="1.67" class="g">AL2023</text><text x="20.04" y="1.67" class="g">EQUIVALENT</text><text x="32.064" y="1.67" class="g">CATEGORY</text><text x="47.094" y="1.67" class="g">NOTE</text></symbol><symbol id="16"><text y="1.67" class="g">---------------------------------------------------</text></symbol><symbol id="17"><text y="1.67" class="g">docker</text><text x="13.026" y="1.67" class="g">docker</text><text x="32.064" y="1.67" class="g">extras_to_dnf</text><text x="46.092" y="1.67" class="g">!</text><text x="48.096" y="1.67" class="g">AL2</text><text x="52.104" y="1.67" class="g">used</text><text x="57.114" y="1.67" class="g">`amazon-linux-extras</text><text x="78.156" y="1.67" class="g">install</text><text x="86.172" y="1.67" class="g">docker</text></symbol><symbol id="18"><text y="1.67" class="g">`.</text><text x="3.006" y="1.67" class="g">AL2023:</text><text x="11.022" y="1.67" class="g">`dnf</text><text x="16.032" y="1.67" class="g">install</text><text x="24.048" y="1.67" class="g">docker`.</text></symbol><symbol id="19"><text y="1.67" class="g">nginx1</text><text x="13.026" y="1.67" class="g">nginx</text><text x="32.064" y="1.67" class="g">renamed</text><text x="48.096" y="1.67" class="g">AL2</text><text x="52.104" y="1.67" class="g">extras</text><text x="59.118" y="1.67" class="g">`nginx1`</text><text x="68.136" y="1.67" class="g">→</text><text x="70.14" y="1.67" class="g">AL2023</text><text x="77.154" y="1.67" class="g">`nginx`</text><text x="85.17" y="1.67" class="g">(mainli</text></symbol><symbol id="20"><text y="1.67" class="g">ne).</text></symbol><symbol id="21"><text y="1.67" class="g">python3.8</text><text x="13.026" y="1.67" class="g">python3.11</text><text x="32.064" y="1.67" class="g">replaced_by</text><text x="46.092" y="1.67" class="g">!</text><text x="48.096" y="1.67" class="g">AL2023</text><text x="55.11" y="1.67" class="g">default</text><text x="63.126" y="1.67" class="g">python</text><text x="70.14" y="1.67" class="g">is</text><text x="73.146" y="1.67" class="g">3.11.</text><text x="79.158" y="1.67" class="g">3.8</text><text x="83.166" y="1.67" class="g">not</text><text x="87.174" y="1.67" class="g">avail</text></symbol><symbol id="22"><text y="1.67" class="g">able.</text></symbol><symbol id="23"><text y="1.67" class="g">php7.4</text><text x="13.026" y="1.67" class="g">php8.2</text><text x="32.064" y="1.67" class="g">replaced_by</text><text x="46.092" y="1.67" class="g">!</text><text x="48.096" y="1.67" class="g">PHP</text><text x="52.104" y="1.67" class="g">7.4</text><text x="56.112" y="1.67" class="g">is</text><text x="59.118" y="1.67" class="g">upstream</text><text x="68.136" y="1.67" class="g">EOL.</text><text x="73.146" y="1.67" class="g">AL2023</text><text x="80.16" y="1.67" class="g">has</text><text x="84.168" y="1.67" class="g">php8.2</text><text x="91.182" y="1.67" class="g">o</text></symbol><symbol id="24"><text y="1.67" class="g">nly.</text></symbol><symbol id="25"><text y="1.67" class="g">ntp</text><text x="13.026" y="1.67" class="g">chrony</text><text x="32.064" y="1.67" class="g">replaced_by</text><text x="46.092" y="1.67" class="g">!</text><text x="48.096" y="1.67" class="g">ntpd</text><text x="53.106" y="1.67" class="g">is</text><text x="56.112" y="1.67" class="g">removed.</text><text x="65.13" y="1.67" class="g">AL2023</text><text x="72.144" y="1.67" class="g">uses</text><text x="77.154" y="1.67" class="g">chrony</text><text x="84.168" y="1.67" class="g">for</text><text x="88.176" y="1.67" class="g">time</text></symbol><symbol id="26"><text x="1.002" y="1.67" class="g">sync.</text></symbol><symbol id="27"><text y="1.67" class="g">yum-utils</text><text x="13.026" y="1.67" class="g">dnf-utils</text><text x="32.064" y="1.67" class="g">renamed</text><text x="48.096" y="1.67" class="g">DNF</text><text x="52.104" y="1.67" class="g">replaces</text><text x="61.122" y="1.67" class="g">YUM.</text><text x="66.132" y="1.67" class="g">`yum-config-manager`</text><text x="87.174" y="1.67" class="g">is</text><text x="90.18" y="1.67" class="g">no</text></symbol><symbol id="28"><text y="1.67" class="g">w</text><text x="2.004" y="1.67" class="g">`dnf</text><text x="7.014" y="1.67" class="g">config-manager`.</text></symbol><symbol id="29"><text y="1.67" class="g">$</text><text x="2.004" y="1.67" class="g">al2023-gate</text><text x="14.028" y="1.67" class="g">cloudinit</text><text x="24.048" y="1.67" class="g">test/fixtures/user-data.sh</text></symbol><symbol id="30"><text y="1.67" class="g">▸</text><text x="2.004" y="1.67" class="g">cloud-init</text><text x="13.026" y="1.67" class="g">diff</text><text x="18.036" y="1.67" class="g">·</text><text x="20.04" y="1.67" class="g">1</text><text x="22.044" y="1.67" class="g">file(s)</text></symbol><symbol id="31"><text y="1.67" class="g">test/fixtures/user-data.sh</text></symbol><symbol id="32"><text x="2.004" y="1.67" class="g">[medium]</text><text x="11.022" y="1.67" class="g">line</text><text x="16.032" y="1.67" class="g">5:</text><text x="19.038" y="1.67" class="g">yum-to-dnf</text></symbol><symbol id="33"><text x="4.008" y="1.67" class="g">yum</text><text x="8.016" y="1.67" class="g">update</text><text x="15.03" y="1.67" class="g">-y</text></symbol><symbol id="34"><text x="4.008" y="1.67" class="g">→</text><text x="6.012" y="1.67" class="g">`yum`</text><text x="12.024" y="1.67" class="g">still</text><text x="18.036" y="1.67" class="g">works</text><text x="24.048" y="1.67" class="g">as</text><text x="27.054" y="1.67" class="g">a</text><text x="29.058" y="1.67" class="g">compat</text><text x="36.072" y="1.67" class="g">alias</text><text x="42.084" y="1.67" class="g">on</text><text x="45.09" y="1.67" class="g">AL2023</text><text x="52.104" y="1.67" class="g">but</text><text x="56.112" y="1.67" class="g">is</text><text x="59.118" y="1.67" class="g">deprecated.</text></symbol><symbol id="35"><text x="4.008" y="1.67" class="g">✎</text><text x="6.012" y="1.67" class="g">Replace</text><text x="14.028" y="1.67" class="g">`yum`</text><text x="20.04" y="1.67" class="g">with</text><text x="25.05" y="1.67" class="g">`dnf`</text><text x="31.062" y="1.67" class="g">for</text><text x="35.07" y="1.67" class="g">forward</text><text x="43.086" y="1.67" class="g">compatibility.</text></symbol><symbol id="36"><text x="2.004" y="1.67" class="g">[medium]</text><text x="11.022" y="1.67" class="g">line</text><text x="16.032" y="1.67" class="g">7:</text><text x="19.038" y="1.67" class="g">yum-to-dnf</text></symbol><symbol id="37"><text x="4.008" y="1.67" class="g">yum</text><text x="8.016" y="1.67" class="g">install</text><text x="16.032" y="1.67" class="g">-y</text><text x="19.038" y="1.67" class="g">python2</text><text x="27.054" y="1.67" class="g">httpd</text></symbol><symbol id="38"><text x="2.004" y="1.67" class="g">[critical]</text><text x="13.026" y="1.67" class="g">line</text><text x="18.036" y="1.67" class="g">6:</text><text x="21.042" y="1.67" class="g">amazon-linux-extras</text></symbol><symbol id="39"><text x="4.008" y="1.67" class="g">amazon-linux-extras</text><text x="24.048" y="1.67" class="g">install</text><text x="32.064" y="1.67" class="g">nginx1</text><text x="39.078" y="1.67" class="g">-y</text></symbol><symbol id="40"><text x="4.008" y="1.67" class="g">→</text><text x="6.012" y="1.67" class="g">`amazon-linux-extras`</text><text x="28.056" y="1.67" class="g">does</text><text x="33.066" y="1.67" class="g">NOT</text><text x="37.074" y="1.67" class="g">exist</text><text x="43.086" y="1.67" class="g">on</text><text x="46.092" y="1.67" class="g">AL2023.</text></symbol><symbol id="41"><text x="4.008" y="1.67" class="g">✎</text><text x="6.012" y="1.67" class="g">Move</text><text x="11.022" y="1.67" class="g">the</text><text x="15.03" y="1.67" class="g">packages</text><text x="24.048" y="1.67" class="g">to</text><text x="27.054" y="1.67" class="g">mainline</text><text x="36.072" y="1.67" class="g">dnf</text><text x="40.08" y="1.67" class="g">install</text><text x="48.096" y="1.67" class="g">commands</text><text x="57.114" y="1.67" class="g">(see</text><text x="62.124" y="1.67" class="g">`al2023-gate</text><text x="75.15" y="1.67" class="g">remap`).</text></symbol><symbol id="42"><text x="2.004" y="1.67" class="g">[critical]</text><text x="13.026" y="1.67" class="g">line</text><text x="18.036" y="1.67" class="g">15:</text><text x="22.044" y="1.67" class="g">python2-shebang</text></symbol><symbol id="43"><text x="4.008" y="1.67" class="g">#!/usr/bin/python</text></symbol><symbol id="44"><text x="4.008" y="1.67" class="g">→</text><text x="6.012" y="1.67" class="g">Python</text><text x="13.026" y="1.67" class="g">2</text><text x="15.03" y="1.67" class="g">is</text><text x="18.036" y="1.67" class="g">removed.</text><text x="27.054" y="1.67" class="g">`#!/usr/bin/python`</text><text x="47.094" y="1.67" class="g">will</text><text x="52.104" y="1.67" class="g">404</text><text x="56.112" y="1.67" class="g">on</text><text x="59.118" y="1.67" class="g">AL2023.</text></symbol><symbol id="a"><path fill="transparent" d="M0 0h92v31H0z"/></symbol><symbol id="b"><path fill="#6f7683" d="M0 0h1.102v2.171H0z"/></symbol></defs><path class="a" d="M0 0h92v65.13H0z"/><g style="animation-duration:7.4343069999999996s;animation-iteration-count:infinite;animation-name:o;animation-timing-function:steps(1,end)"><svg width="2576"><svg><use xlink:href="#a"/><use xlink:href="#b" x="-.004"/></svg><svg x="92"><use xlink:href="#a"/><use xlink:href="#b" x="-.004" y="2.146"/><use xlink:href="#1"/></svg><svg x="184"><use xlink:href="#a"/><use xlink:href="#b" x="-.004" y="6.488"/><use xlink:href="#1"/><use xlink:href="#2" y="4.342"/></svg><svg x="276"><use xlink:href="#a"/><use xlink:href="#b" x="-.004" y="28.198"/><use xlink:href="#1"/><use xlink:href="#2" y="4.342"/><use xlink:href="#3" y="8.684"/><use xlink:href="#4" y="10.855"/><use xlink:href="#5" y="15.197"/><use xlink:href="#6" y="17.368"/><use xlink:href="#7" y="19.539"/><use xlink:href="#8" y="21.71"/><use xlink:href="#9" y="23.881"/><use xlink:href="#10" y="26.052"/></svg><svg x="368"><use xlink:href="#a"/><use xlink:href="#b" x="-.004" y="36.882"/><use xlink:href="#1"/><use xlink:href="#2" y="4.342"/><use xlink:href="#3" y="8.684"/><use xlink:href="#4" y="10.855"/><use xlink:href="#5" y="15.197"/><use xlink:href="#6" y="17.368"/><use xlink:href="#7" y="19.539"/><use xlink:href="#8" y="21.71"/><use xlink:href="#9" y="23.881"/><use xlink:href="#10" y="26.052"/><use xlink:href="#11" y="28.223"/><use xlink:href="#12" y="30.394"/><use xlink:href="#13" y="34.736"/></svg><svg x="460"><use xlink:href="#a"/><use xlink:href="#b" x="-.004" y="41.224"/><use xlink:href="#1"/><use xlink:href="#2" y="4.342"/><use xlink:href="#3" y="8.684"/><use xlink:href="#4" y="10.855"/><use xlink:href="#5" y="15.197"/><use xlink:href="#6" y="17.368"/><use xlink:href="#7" y="19.539"/><use xlink:href="#8" y="21.71"/><use xlink:href="#9" y="23.881"/><use xlink:href="#10" y="26.052"/><use xlink:href="#11" y="28.223"/><use xlink:href="#12" y="30.394"/><use xlink:href="#13" y="34.736"/><use xlink:href="#14" y="39.078"/></svg><svg x="552"><use xlink:href="#a"/><use xlink:href="#b" x="-.004" y="65.105"/><use xlink:href="#3" y="2.171"/><use xlink:href="#4" y="4.342"/><use xlink:href="#5" y="8.684"/><use xlink:href="#6" y="10.855"/><use xlink:href="#7" y="13.026"/><use xlink:href="#8" y="15.197"/><use xlink:href="#9" y="17.368"/><use xlink:href="#10" y="19.539"/><use xlink:href="#11" y="21.71"/><use xlink:href="#12" y="23.881"/><use xlink:href="#13" y="28.223"/><use xlink:href="#14" y="32.565"/><use xlink:href="#15" y="34.736"/><use xlink:href="#16" y="36.907"/><use xlink:href="#17" y="39.078"/><use xlink:href="#18" y="41.249"/><use xlink:href="#19" y="43.42"/><use xlink:href="#20" y="45.591"/><use xlink:href="#21" y="47.762"/><use xlink:href="#22" y="49.933"/><use xlink:href="#23" y="52.104"/><use xlink:href="#24" y="54.275"/><use xlink:href="#25" y="56.446"/><use xlink:href="#26" y="58.617"/><use xlink:href="#27" y="60.788"/><use xlink:href="#28" y="62.959"/></svg><svg x="644"><use xlink:href="#a"/><use xlink:href="#b" x="-.004" y="65.105"/><use xlink:href="#4"/><use xlink:href="#5" y="4.342"/><use xlink:href="#6" y="6.513"/><use xlink:href="#7" y="8.684"/><use xlink:href="#8" y="10.855"/><use xlink:href="#9" y="13.026"/><use xlink:href="#10" y="15.197"/><use xlink:href="#11" y="17.368"/><use xlink:href="#12" y="19.539"/><use xlink:href="#13" y="23.881"/><use xlink:href="#14" y="28.223"/><use xlink:href="#15" y="30.394"/><use xlink:href="#16" y="32.565"/><use xlink:href="#17" y="34.736"/><use xlink:href="#18" y="36.907"/><use xlink:href="#19" y="39.078"/><use xlink:href="#20" y="41.249"/><use xlink:href="#21" y="43.42"/><use xlink:href="#22" y="45.591"/><use xlink:href="#23" y="47.762"/><use xlink:href="#24" y="49.933"/><use xlink:href="#25" y="52.104"/><use xlink:href="#26" y="54.275"/><use xlink:href="#27" y="56.446"/><use xlink:href="#28" y="58.617"/><use xlink:href="#29" y="62.959"/></svg><svg x="736"><use xlink:href="#a"/><use xlink:href="#b" x="-.004" y="65.105"/><use xlink:href="#5" y="2.171"/><use xlink:href="#6" y="4.342"/><use xlink:href="#7" y="6.513"/><use xlink:href="#8" y="8.684"/><use xlink:href="#9" y="10.855"/><use xlink:href="#10" y="13.026"/><use xlink:href="#11" y="15.197"/><use xlink:href="#12" y="17.368"/><use xlink:href="#13" y="21.71"/><use xlink:href="#14" y="26.052"/><use xlink:href="#15" y="28.223"/><use xlink:href="#16" y="30.394"/><use xlink:href="#17" y="32.565"/><use xlink:href="#18" y="34.736"/><use xlink:href="#19" y="36.907"/><use xlink:href="#20" y="39.078"/><use xlink:href="#21" y="41.249"/><use xlink:href="#22" y="43.42"/><use xlink:href="#23" y="45.591"/><use xlink:href="#24" y="47.762"/><use xlink:href="#25" y="49.933"/><use xlink:href="#26" y="52.104"/><use xlink:href="#27" y="54.275"/><use xlink:href="#28" y="56.446"/><use xlink:href="#29" y="60.788"/></svg><svg x="828"><use xlink:href="#a"/><use xlink:href="#b" x="-.004" y="65.105"/><use xlink:href="#5"/><use xlink:href="#6" y="2.171"/><use xlink:href="#7" y="4.342"/><use xlink:href="#8" y="6.513"/><use xlink:href="#9" y="8.684"/><use xlink:href="#10" y="10.855"/><use xlink:href="#11" y="13.026"/><use xlink:href="#12" y="15.197"/><use xlink:href="#13" y="19.539"/><use xlink:href="#14" y="23.881"/><use xlink:href="#15" y="26.052"/><use xlink:href="#16" y="28.223"/><use xlink:href="#17" y="30.394"/><use xlink:href="#18" y="32.565"/><use xlink:href="#19" y="34.736"/><use xlink:href="#20" y="36.907"/><use xlink:href="#21" y="39.078"/><use xlink:href="#22" y="41.249"/><use xlink:href="#23" y="43.42"/><use xlink:href="#24" y="45.591"/><use xlink:href="#25" y="47.762"/><use xlink:href="#26" y="49.933"/><use xlink:href="#27" y="52.104"/><use xlink:href="#28" y="54.275"/><use xlink:href="#29" y="58.617"/><use xlink:href="#30" y="62.959"/></svg><svg x="920"><use xlink:href="#a"/><use xlink:href="#b" x="-.004" y="65.105"/><use xlink:href="#6"/><use xlink:href="#7" y="2.171"/><use xlink:href="#8" y="4.342"/><use xlink:href="#9" y="6.513"/><use xlink:href="#10" y="8.684"/><use xlink:href="#11" y="10.855"/><use xlink:href="#12" y="13.026"/><use xlink:href="#13" y="17.368"/><use xlink:href="#14" y="21.71"/><use xlink:href="#15" y="23.881"/><use xlink:href="#16" y="26.052"/><use xlink:href="#17" y="28.223"/><use xlink:href="#18" y="30.394"/><use xlink:href="#19" y="32.565"/><use xlink:href="#20" y="34.736"/><use xlink:href="#21" y="36.907"/><use xlink:href="#22" y="39.078"/><use xlink:href="#23" y="41.249"/><use xlink:href="#24" y="43.42"/><use xlink:href="#25" y="45.591"/><use xlink:href="#26" y="47.762"/><use xlink:href="#27" y="49.933"/><use xlink:href="#28" y="52.104"/><use xlink:href="#29" y="56.446"/><use xlink:href="#30" y="60.788"/></svg><svg x="1012"><use xlink:href="#a"/><use xlink:href="#b" x="-.004" y="65.105"/><use xlink:href="#7"/><use xlink:href="#8" y="2.171"/><use xlink:href="#9" y="4.342"/><use xlink:href="#10" y="6.513"/><use xlink:href="#11" y="8.684"/><use xlink:href="#12" y="10.855"/><use xlink:href="#13" y="15.197"/><use xlink:href="#14" y="19.539"/><use xlink:href="#15" y="21.71"/><use xlink:href="#16" y="23.881"/><use xlink:href="#17" y="26.052"/><use xlink:href="#18" y="28.223"/><use xlink:href="#19" y="30.394"/><use xlink:href="#20" y="32.565"/><use xlink:href="#21" y="34.736"/><use xlink:href="#22" y="36.907"/><use xlink:href="#23" y="39.078"/><use xlink:href="#24" y="41.249"/><use xlink:href="#25" y="43.42"/><use xlink:href="#26" y="45.591"/><use xlink:href="#27" y="47.762"/><use xlink:href="#28" y="49.933"/><use xlink:href="#29" y="54.275"/><use xlink:href="#30" y="58.617"/><use xlink:href="#31" y="62.959"/></svg><svg x="1104"><use xlink:href="#a"/><use xlink:href="#b" x="-.004" y="65.105"/><use xlink:href="#8"/><use xlink:href="#9" y="2.171"/><use xlink:href="#10" y="4.342"/><use xlink:href="#11" y="6.513"/><use xlink:href="#12" y="8.684"/><use xlink:href="#13" y="13.026"/><use xlink:href="#14" y="17.368"/><use xlink:href="#15" y="19.539"/><use xlink:href="#16" y="21.71"/><use xlink:href="#17" y="23.881"/><use xlink:href="#18" y="26.052"/><use xlink:href="#19" y="28.223"/><use xlink:href="#20" y="30.394"/><use xlink:href="#21" y="32.565"/><use xlink:href="#22" y="34.736"/><use xlink:href="#23" y="36.907"/><use xlink:href="#24" y="39.078"/><use xlink:href="#25" y="41.249"/><use xlink:href="#26" y="43.42"/><use xlink:href="#27" y="45.591"/><use xlink:href="#28" y="47.762"/><use xlink:href="#29" y="52.104"/><use xlink:href="#30" y="56.446"/><use xlink:href="#31" y="60.788"/><use xlink:href="#32" y="62.959"/></svg><svg x="1196"><use xlink:href="#a"/><use xlink:href="#b" x="-.004" y="65.105"/><use xlink:href="#9"/><use xlink:href="#10" y="2.171"/><use xlink:href="#11" y="4.342"/><use xlink:href="#12" y="6.513"/><use xlink:href="#13" y="10.855"/><use xlink:href="#14" y="15.197"/><use xlink:href="#15" y="17.368"/><use xlink:href="#16" y="19.539"/><use xlink:href="#17" y="21.71"/><use xlink:href="#18" y="23.881"/><use xlink:href="#19" y="26.052"/><use xlink:href="#20" y="28.223"/><use xlink:href="#21" y="30.394"/><use xlink:href="#22" y="32.565"/><use xlink:href="#23" y="34.736"/><use xlink:href="#24" y="36.907"/><use xlink:href="#25" y="39.078"/><use xlink:href="#26" y="41.249"/><use xlink:href="#27" y="43.42"/><use xlink:href="#28" y="45.591"/><use xlink:href="#29" y="49.933"/><use xlink:href="#30" y="54.275"/><use xlink:href="#31" y="58.617"/><use xlink:href="#32" y="60.788"/><use xlink:href="#33" y="62.959"/></svg><svg x="1288"><use xlink:href="#a"/><use xlink:href="#b" x="-.004" y="65.105"/><use xlink:href="#10"/><use xlink:href="#11" y="2.171"/><use xlink:href="#12" y="4.342"/><use xlink:href="#13" y="8.684"/><use xlink:href="#14" y="13.026"/><use xlink:href="#15" y="15.197"/><use xlink:href="#16" y="17.368"/><use xlink:href="#17" y="19.539"/><use xlink:href="#18" y="21.71"/><use xlink:href="#19" y="23.881"/><use xlink:href="#20" y="26.052"/><use xlink:href="#21" y="28.223"/><use xlink:href="#22" y="30.394"/><use xlink:href="#23" y="32.565"/><use xlink:href="#24" y="34.736"/><use xlink:href="#25" y="36.907"/><use xlink:href="#26" y="39.078"/><use xlink:href="#27" y="41.249"/><use xlink:href="#28" y="43.42"/><use xlink:href="#29" y="47.762"/><use xlink:href="#30" y="52.104"/><use xlink:href="#31" y="56.446"/><use xlink:href="#32" y="58.617"/><use xlink:href="#33" y="60.788"/><use xlink:href="#34" y="62.959"/></svg><svg x="1380"><use xlink:href="#a"/><use xlink:href="#b" x="-.004" y="65.105"/><use xlink:href="#11"/><use xlink:href="#12" y="2.171"/><use xlink:href="#13" y="6.513"/><use xlink:href="#14" y="10.855"/><use xlink:href="#15" y="13.026"/><use xlink:href="#16" y="15.197"/><use xlink:href="#17" y="17.368"/><use xlink:href="#18" y="19.539"/><use xlink:href="#19" y="21.71"/><use xlink:href="#20" y="23.881"/><use xlink:href="#21" y="26.052"/><use xlink:href="#22" y="28.223"/><use xlink:href="#23" y="30.394"/><use xlink:href="#24" y="32.565"/><use xlink:href="#25" y="34.736"/><use xlink:href="#26" y="36.907"/><use xlink:href="#27" y="39.078"/><use xlink:href="#28" y="41.249"/><use xlink:href="#29" y="45.591"/><use xlink:href="#30" y="49.933"/><use xlink:href="#31" y="54.275"/><use xlink:href="#32" y="56.446"/><use xlink:href="#33" y="58.617"/><use xlink:href="#34" y="60.788"/><use xlink:href="#35" y="62.959"/></svg><svg x="1472"><use xlink:href="#a"/><use xlink:href="#b" x="-.004" y="65.105"/><use xlink:href="#12"/><use xlink:href="#13" y="4.342"/><use xlink:href="#14" y="8.684"/><use xlink:href="#15" y="10.855"/><use xlink:href="#16" y="13.026"/><use xlink:href="#17" y="15.197"/><use xlink:href="#18" y="17.368"/><use xlink:href="#19" y="19.539"/><use xlink:href="#20" y="21.71"/><use xlink:href="#21" y="23.881"/><use xlink:href="#22" y="26.052"/><use xlink:href="#23" y="28.223"/><use xlink:href="#24" y="30.394"/><use xlink:href="#25" y="32.565"/><use xlink:href="#26" y="34.736"/><use xlink:href="#27" y="36.907"/><use xlink:href="#28" y="39.078"/><use xlink:href="#29" y="43.42"/><use xlink:href="#30" y="47.762"/><use xlink:href="#31" y="52.104"/><use xlink:href="#32" y="54.275"/><use xlink:href="#33" y="56.446"/><use xlink:href="#34" y="58.617"/><use xlink:href="#35" y="60.788"/><use xlink:href="#36" y="62.959"/></svg><svg x="1564"><use xlink:href="#a"/><use xlink:href="#b" x="-.004" y="65.105"/><use xlink:href="#13" y="2.171"/><use xlink:href="#14" y="6.513"/><use xlink:href="#15" y="8.684"/><use xlink:href="#16" y="10.855"/><use xlink:href="#17" y="13.026"/><use xlink:href="#18" y="15.197"/><use xlink:href="#19" y="17.368"/><use xlink:href="#20" y="19.539"/><use xlink:href="#21" y="21.71"/><use xlink:href="#22" y="23.881"/><use xlink:href="#23" y="26.052"/><use xlink:href="#24" y="28.223"/><use xlink:href="#25" y="30.394"/><use xlink:href="#26" y="32.565"/><use xlink:href="#27" y="34.736"/><use xlink:href="#28" y="36.907"/><use xlink:href="#29" y="41.249"/><use xlink:href="#30" y="45.591"/><use xlink:href="#31" y="49.933"/><use xlink:href="#32" y="52.104"/><use xlink:href="#33" y="54.275"/><use xlink:href="#34" y="56.446"/><use xlink:href="#35" y="58.617"/><use xlink:href="#36" y="60.788"/><use xlink:href="#37" y="62.959"/></svg><svg x="1656"><use xlink:href="#a"/><use xlink:href="#b" x="-.004" y="65.105"/><use xlink:href="#13"/><use xlink:href="#14" y="4.342"/><use xlink:href="#15" y="6.513"/><use xlink:href="#16" y="8.684"/><use xlink:href="#17" y="10.855"/><use xlink:href="#18" y="13.026"/><use xlink:href="#19" y="15.197"/><use xlink:href="#20" y="17.368"/><use xlink:href="#21" y="19.539"/><use xlink:href="#22" y="21.71"/><use xlink:href="#23" y="23.881"/><use xlink:href="#24" y="26.052"/><use xlink:href="#25" y="28.223"/><use xlink:href="#26" y="30.394"/><use xlink:href="#27" y="32.565"/><use xlink:href="#28" y="34.736"/><use xlink:href="#29" y="39.078"/><use xlink:href="#30" y="43.42"/><use xlink:href="#31" y="47.762"/><use xlink:href="#32" y="49.933"/><use xlink:href="#33" y="52.104"/><use xlink:href="#34" y="54.275"/><use xlink:href="#35" y="56.446"/><use xlink:href="#36" y="58.617"/><use xlink:href="#37" y="60.788"/><use xlink:href="#34" y="62.959"/></svg><svg x="1748"><use xlink:href="#a"/><use xlink:href="#b" x="-.004" y="65.105"/><use xlink:href="#14" y="2.171"/><use xlink:href="#15" y="4.342"/><use xlink:href="#16" y="6.513"/><use xlink:href="#17" y="8.684"/><use xlink:href="#18" y="10.855"/><use xlink:href="#19" y="13.026"/><use xlink:href="#20" y="15.197"/><use xlink:href="#21" y="17.368"/><use xlink:href="#22" y="19.539"/><use xlink:href="#23" y="21.71"/><use xlink:href="#24" y="23.881"/><use xlink:href="#25" y="26.052"/><use xlink:href="#26" y="28.223"/><use xlink:href="#27" y="30.394"/><use xlink:href="#28" y="32.565"/><use xlink:href="#29" y="36.907"/><use xlink:href="#30" y="41.249"/><use xlink:href="#31" y="45.591"/><use xlink:href="#32" y="47.762"/><use xlink:href="#33" y="49.933"/><use xlink:href="#34" y="52.104"/><use xlink:href="#35" y="54.275"/><use xlink:href="#36" y="56.446"/><use xlink:href="#37" y="58.617"/><use xlink:href="#34" y="60.788"/><use xlink:href="#35" y="62.959"/></svg><svg x="1840"><use xlink:href="#a"/><use xlink:href="#b" x="-.004" y="65.105"/><use xlink:href="#14"/><use xlink:href="#15" y="2.171"/><use xlink:href="#16" y="4.342"/><use xlink:href="#17" y="6.513"/><use xlink:href="#18" y="8.684"/><use xlink:href="#19" y="10.855"/><use xlink:href="#20" y="13.026"/><use xlink:href="#21" y="15.197"/><use xlink:href="#22" y="17.368"/><use xlink:href="#23" y="19.539"/><use xlink:href="#24" y="21.71"/><use xlink:href="#25" y="23.881"/><use xlink:href="#26" y="26.052"/><use xlink:href="#27" y="28.223"/><use xlink:href="#28" y="30.394"/><use xlink:href="#29" y="34.736"/><use xlink:href="#30" y="39.078"/><use xlink:href="#31" y="43.42"/><use xlink:href="#32" y="45.591"/><use xlink:href="#33" y="47.762"/><use xlink:href="#34" y="49.933"/><use xlink:href="#35" y="52.104"/><use xlink:href="#36" y="54.275"/><use xlink:href="#37" y="56.446"/><use xlink:href="#34" y="58.617"/><use xlink:href="#35" y="60.788"/><use xlink:href="#38" y="62.959"/></svg><svg x="1932"><use xlink:href="#a"/><use xlink:href="#b" x="-.004" y="65.105"/><use xlink:href="#15"/><use xlink:href="#16" y="2.171"/><use xlink:href="#17" y="4.342"/><use xlink:href="#18" y="6.513"/><use xlink:href="#19" y="8.684"/><use xlink:href="#20" y="10.855"/><use xlink:href="#21" y="13.026"/><use xlink:href="#22" y="15.197"/><use xlink:href="#23" y="17.368"/><use xlink:href="#24" y="19.539"/><use xlink:href="#25" y="21.71"/><use xlink:href="#26" y="23.881"/><use xlink:href="#27" y="26.052"/><use xlink:href="#28" y="28.223"/><use xlink:href="#29" y="32.565"/><use xlink:href="#30" y="36.907"/><use xlink:href="#31" y="41.249"/><use xlink:href="#32" y="43.42"/><use xlink:href="#33" y="45.591"/><use xlink:href="#34" y="47.762"/><use xlink:href="#35" y="49.933"/><use xlink:href="#36" y="52.104"/><use xlink:href="#37" y="54.275"/><use xlink:href="#34" y="56.446"/><use xlink:href="#35" y="58.617"/><use xlink:href="#38" y="60.788"/><use xlink:href="#39" y="62.959"/></svg><svg x="2024"><use xlink:href="#a"/><use xlink:href="#b" x="-.004" y="65.105"/><use xlink:href="#16"/><use xlink:href="#17" y="2.171"/><use xlink:href="#18" y="4.342"/><use xlink:href="#19" y="6.513"/><use xlink:href="#20" y="8.684"/><use xlink:href="#21" y="10.855"/><use xlink:href="#22" y="13.026"/><use xlink:href="#23" y="15.197"/><use xlink:href="#24" y="17.368"/><use xlink:href="#25" y="19.539"/><use xlink:href="#26" y="21.71"/><use xlink:href="#27" y="23.881"/><use xlink:href="#28" y="26.052"/><use xlink:href="#29" y="30.394"/><use xlink:href="#30" y="34.736"/><use xlink:href="#31" y="39.078"/><use xlink:href="#32" y="41.249"/><use xlink:href="#33" y="43.42"/><use xlink:href="#34" y="45.591"/><use xlink:href="#35" y="47.762"/><use xlink:href="#36" y="49.933"/><use xlink:href="#37" y="52.104"/><use xlink:href="#34" y="54.275"/><use xlink:href="#35" y="56.446"/><use xlink:href="#38" y="58.617"/><use xlink:href="#39" y="60.788"/><use xlink:href="#40" y="62.959"/></svg><svg x="2116"><use xlink:href="#a"/><use xlink:href="#b" x="-.004" y="65.105"/><use xlink:href="#17"/><use xlink:href="#18" y="2.171"/><use xlink:href="#19" y="4.342"/><use xlink:href="#20" y="6.513"/><use xlink:href="#21" y="8.684"/><use xlink:href="#22" y="10.855"/><use xlink:href="#23" y="13.026"/><use xlink:href="#24" y="15.197"/><use xlink:href="#25" y="17.368"/><use xlink:href="#26" y="19.539"/><use xlink:href="#27" y="21.71"/><use xlink:href="#28" y="23.881"/><use xlink:href="#29" y="28.223"/><use xlink:href="#30" y="32.565"/><use xlink:href="#31" y="36.907"/><use xlink:href="#32" y="39.078"/><use xlink:href="#33" y="41.249"/><use xlink:href="#34" y="43.42"/><use xlink:href="#35" y="45.591"/><use xlink:href="#36" y="47.762"/><use xlink:href="#37" y="49.933"/><use xlink:href="#34" y="52.104"/><use xlink:href="#35" y="54.275"/><use xlink:href="#38" y="56.446"/><use xlink:href="#39" y="58.617"/><use xlink:href="#40" y="60.788"/><use xlink:href="#41" y="62.959"/></svg><svg x="2208"><use xlink:href="#a"/><use xlink:href="#b" x="-.004" y="65.105"/><use xlink:href="#18"/><use xlink:href="#19" y="2.171"/><use xlink:href="#20" y="4.342"/><use xlink:href="#21" y="6.513"/><use xlink:href="#22" y="8.684"/><use xlink:href="#23" y="10.855"/><use xlink:href="#24" y="13.026"/><use xlink:href="#25" y="15.197"/><use xlink:href="#26" y="17.368"/><use xlink:href="#27" y="19.539"/><use xlink:href="#28" y="21.71"/><use xlink:href="#29" y="26.052"/><use xlink:href="#30" y="30.394"/><use xlink:href="#31" y="34.736"/><use xlink:href="#32" y="36.907"/><use xlink:href="#33" y="39.078"/><use xlink:href="#34" y="41.249"/><use xlink:href="#35" y="43.42"/><use xlink:href="#36" y="45.591"/><use xlink:href="#37" y="47.762"/><use xlink:href="#34" y="49.933"/><use xlink:href="#35" y="52.104"/><use xlink:href="#38" y="54.275"/><use xlink:href="#39" y="56.446"/><use xlink:href="#40" y="58.617"/><use xlink:href="#41" y="60.788"/><use xlink:href="#42" y="62.959"/></svg><svg x="2300"><use xlink:href="#a"/><use xlink:href="#b" x="-.004" y="65.105"/><use xlink:href="#19"/><use xlink:href="#20" y="2.171"/><use xlink:href="#21" y="4.342"/><use xlink:href="#22" y="6.513"/><use xlink:href="#23" y="8.684"/><use xlink:href="#24" y="10.855"/><use xlink:href="#25" y="13.026"/><use xlink:href="#26" y="15.197"/><use xlink:href="#27" y="17.368"/><use xlink:href="#28" y="19.539"/><use xlink:href="#29" y="23.881"/><use xlink:href="#30" y="28.223"/><use xlink:href="#31" y="32.565"/><use xlink:href="#32" y="34.736"/><use xlink:href="#33" y="36.907"/><use xlink:href="#34" y="39.078"/><use xlink:href="#35" y="41.249"/><use xlink:href="#36" y="43.42"/><use xlink:href="#37" y="45.591"/><use xlink:href="#34" y="47.762"/><use xlink:href="#35" y="49.933"/><use xlink:href="#38" y="52.104"/><use xlink:href="#39" y="54.275"/><use xlink:href="#40" y="56.446"/><use xlink:href="#41" y="58.617"/><use xlink:href="#42" y="60.788"/><use xlink:href="#43" y="62.959"/></svg><svg x="2392"><use xlink:href="#a"/><use xlink:href="#b" x="-.004" y="65.105"/><use xlink:href="#20"/><use xlink:href="#21" y="2.171"/><use xlink:href="#22" y="4.342"/><use xlink:href="#23" y="6.513"/><use xlink:href="#24" y="8.684"/><use xlink:href="#25" y="10.855"/><use xlink:href="#26" y="13.026"/><use xlink:href="#27" y="15.197"/><use xlink:href="#28" y="17.368"/><use xlink:href="#29" y="21.71"/><use xlink:href="#30" y="26.052"/><use xlink:href="#31" y="30.394"/><use xlink:href="#32" y="32.565"/><use xlink:href="#33" y="34.736"/><use xlink:href="#34" y="36.907"/><use xlink:href="#35" y="39.078"/><use xlink:href="#36" y="41.249"/><use xlink:href="#37" y="43.42"/><use xlink:href="#34" y="45.591"/><use xlink:href="#35" y="47.762"/><use xlink:href="#38" y="49.933"/><use xlink:href="#39" y="52.104"/><use xlink:href="#40" y="54.275"/><use xlink:href="#41" y="56.446"/><use xlink:href="#42" y="58.617"/><use xlink:href="#43" y="60.788"/><use xlink:href="#44" y="62.959"/></svg><svg x="2484"><use xlink:href="#a"/><use xlink:href="#b" x="-.004" y="65.105"/><use xlink:href="#21"/><use xlink:href="#22" y="2.171"/><use xlink:href="#23" y="4.342"/><use xlink:href="#24" y="6.513"/><use xlink:href="#25" y="8.684"/><use xlink:href="#26" y="10.855"/><use xlink:href="#27" y="13.026"/><use xlink:href="#28" y="15.197"/><use xlink:href="#29" y="19.539"/><use xlink:href="#30" y="23.881"/><use xlink:href="#31" y="28.223"/><use xlink:href="#32" y="30.394"/><use xlink:href="#33" y="32.565"/><use xlink:href="#34" y="34.736"/><use xlink:href="#35" y="36.907"/><use xlink:href="#36" y="39.078"/><use xlink:href="#37" y="41.249"/><use xlink:href="#34" y="43.42"/><use xlink:href="#35" y="45.591"/><use xlink:href="#38" y="47.762"/><use xlink:href="#39" y="49.933"/><use xlink:href="#40" y="52.104"/><use xlink:href="#41" y="54.275"/><use xlink:href="#42" y="56.446"/><use xlink:href="#43" y="58.617"/><use xlink:href="#44" y="60.788"/><text x="4.008" y="64.629" class="g">✎</text><text x="6.012" y="64.629" class="g">Use</text><text x="10.02" y="64.629" class="g">`#!/usr/bin/env</text><text x="26.052" y="64.629" class="g">python3`</text><text x="35.07" y="64.629" class="g">or</text><text x="38.076" y="64.629" class="g">`#!/usr/bin/python3.11`.</text></svg></svg></g></g></svg></svg>